<svg width="45" height="45" viewBox="0 0 45 45" fill="none" xmlns="http://www.w3.org/2000/svg">
<path opacity="0.3" d="M35.625 20.625H39.375C40.4105 20.625 41.25 21.4645 41.25 22.5C41.25 23.5355 40.4105 24.375 39.375 24.375H35.625C34.5895 24.375 33.75 23.5355 33.75 22.5C33.75 21.4645 34.5895 20.625 35.625 20.625ZM5.625 20.625H9.375C10.4105 20.625 11.25 21.4645 11.25 22.5C11.25 23.5355 10.4105 24.375 9.375 24.375H5.625C4.58947 24.375 3.75 23.5355 3.75 22.5C3.75 21.4645 4.58947 20.625 5.625 20.625ZM22.5 3.75C23.5355 3.75 24.375 4.58947 24.375 5.625V9.375C24.375 10.4105 23.5355 11.25 22.5 11.25C21.4645 11.25 20.625 10.4105 20.625 9.375V5.625C20.625 4.58947 21.4645 3.75 22.5 3.75ZM22.5 33.75C23.5355 33.75 24.375 34.5895 24.375 35.625V39.375C24.375 40.4105 23.5355 41.25 22.5 41.25C21.4645 41.25 20.625 40.4105 20.625 39.375V35.625C20.625 34.5895 21.4645 33.75 22.5 33.75Z" fill="#6A6E87"/>
<path opacity="0.3" d="M22.5 26.25C24.5711 26.25 26.25 24.5711 26.25 22.5C26.25 20.4289 24.5711 18.75 22.5 18.75C20.4289 18.75 18.75 20.4289 18.75 22.5C18.75 24.5711 20.4289 26.25 22.5 26.25Z" fill="#6A6E87"/>
<path d="M22.5 31.875C27.6777 31.875 31.875 27.6777 31.875 22.5C31.875 17.3223 27.6777 13.125 22.5 13.125C17.3223 13.125 13.125 17.3223 13.125 22.5C13.125 27.6777 17.3223 31.875 22.5 31.875ZM22.5 35.625C15.2513 35.625 9.375 29.7487 9.375 22.5C9.375 15.2513 15.2513 9.375 22.5 9.375C29.7487 9.375 35.625 15.2513 35.625 22.5C35.625 29.7487 29.7487 35.625 22.5 35.625Z" fill="#6A6E87"/>
</svg>
