<svg width="45" height="46" viewBox="0 0 45 46" fill="none" xmlns="http://www.w3.org/2000/svg">
<path opacity="0.3" d="M18.75 10.9792C18.75 9.42589 17.4908 8.16669 15.9375 8.16669C14.3842 8.16669 13.125 9.42589 13.125 10.9792V29.7292C13.125 31.2825 14.3842 32.5417 15.9375 32.5417C17.4908 32.5417 18.75 31.2825 18.75 29.7292V10.9792Z" fill="#6A6E87"/>
<path opacity="0.3" d="M28.125 20.3542C28.125 18.8009 26.8658 17.5417 25.3125 17.5417C23.7592 17.5417 22.5 18.8009 22.5 20.3542V29.7292C22.5 31.2825 23.7592 32.5417 25.3125 32.5417C26.8658 32.5417 28.125 31.2825 28.125 29.7292V20.3542Z" fill="#6A6E87"/>
<path d="M9.375 36.2917H37.5C38.5355 36.2917 39.375 37.1312 39.375 38.1667C39.375 39.2022 38.5355 40.0417 37.5 40.0417H7.5C6.46447 40.0417 5.625 39.2022 5.625 38.1667V8.16669C5.625 7.13115 6.46447 6.29169 7.5 6.29169C8.53553 6.29169 9.375 7.13115 9.375 8.16669V36.2917Z" fill="#6A6E87"/>
<path opacity="0.3" d="M37.5 24.1042C37.5 22.5509 36.2408 21.2917 34.6875 21.2917C33.1342 21.2917 31.875 22.5509 31.875 24.1042V29.7292C31.875 31.2825 33.1342 32.5417 34.6875 32.5417C36.2408 32.5417 37.5 31.2825 37.5 29.7292V24.1042Z" fill="#6A6E87"/>
</svg>
