<svg width="14" height="14" viewBox="0 0 14 14" fill="none" xmlns="http://www.w3.org/2000/svg">
<path fill-rule="evenodd" clip-rule="evenodd" d="M11.007 13.9289V8.54316C11.007 7.52174 10.7285 6.43066 9.4981 6.43066C8.80167 6.43066 8.1981 6.91816 7.96596 7.56816C7.8731 7.82352 7.8731 8.07888 7.8731 8.33424V13.9289H4.90167C4.90167 10.6789 4.92489 7.45209 4.83203 4.20209H7.40882L7.5481 5.57174H7.59453C8.22132 4.55031 9.38203 3.99316 10.566 3.99316C13.0267 3.99316 14.0017 5.96638 14.0017 8.19495V13.9289H11.007ZM0.142578 13.9287V4.2019H3.11401V13.9287H0.142578ZM1.65084 -0.000488281C2.53298 -0.000488281 3.20619 0.603083 3.20619 1.50844C3.20619 2.43701 2.50977 3.01737 1.60441 3.01737C0.722266 3.01737 0.0722656 2.39058 0.0722656 1.50844C0.0722656 0.603083 0.768694 -0.000488281 1.65084 -0.000488281Z" fill="#E7E9F7"/>
</svg>
