<svg width="36" height="36" viewBox="0 0 36 36" fill="none" xmlns="http://www.w3.org/2000/svg">
<path d="M8.11345 30.6132C7.12446 31.0217 6.03254 31.1092 4.99131 30.8635C2.2675 30.2101 0.897942 27.3131 0.626828 24.7904C0.514252 21.7686 0.386355 18.1027 0.253129 15.0795C0.176524 13.4057 0.0432984 10.1409 0 8.46316C0.122568 6.82076 1.38155 5.25577 3.08551 5.03554C4.0847 4.88338 5.1232 5.22974 5.87393 5.8851C9.40841 8.66871 14.1925 12.4213 17.7257 15.1536C20.9105 17.6375 25.4528 21.1599 28.7122 23.4497C29.0586 23.6979 29.4176 23.9489 29.764 24.1904C30.4548 24.7243 31.3181 24.8084 32.0528 24.3279C32.2188 24.2252 32.3775 24.111 32.5278 23.9862C32.9461 23.6299 33.2272 23.1287 33.487 22.5848C34.5255 20.2796 35.1863 16.2067 34.4196 13.7754C34.2197 13.1922 33.6682 12.6496 33.1193 12.5074C32.6843 12.4133 32.4218 12.6249 32.0335 12.8445L32.1214 12.7911C25.1617 17.9065 14.9413 25.4978 8.11345 30.6132ZM6.53406 27.5367C13.617 23.0839 24.2031 16.2394 31.2721 11.5684C31.5572 11.4056 31.9269 11.2194 32.2866 11.1346C33.6056 10.8063 34.8898 11.7707 35.4447 12.8898C35.6599 13.3383 35.7691 13.8322 35.8384 14.304C36.1955 17.1423 35.4114 21.3655 33.852 23.7727C33.519 24.2912 33.0227 24.7297 32.4898 25.0574C31.6525 25.6026 30.5367 25.658 29.6681 25.1441C29.1665 24.8438 28.6882 24.4768 28.2126 24.1504C26.3681 22.8424 24.4743 21.4182 22.6124 20.1328C16.9563 16.2314 10.1891 11.5237 4.58297 7.55687C3.98945 7.06368 3.18943 7.0797 2.70981 7.70703C2.51644 7.97313 2.40799 8.29164 2.39873 8.62066L2.40206 8.43646C2.56993 10.2197 3.53448 22.8323 3.64706 24.3486C3.87954 25.7014 4.65291 27.9191 6.31823 27.5747L6.45546 27.542L6.58136 27.4999C6.57111 27.5018 6.56136 27.5058 6.55275 27.5116C6.54414 27.5175 6.53686 27.5251 6.5314 27.534L6.53406 27.5367Z" fill="url(#paint0_linear_110_40)"/>
<defs>
<linearGradient id="paint0_linear_110_40" x1="0" y1="18" x2="35.9237" y2="18.0025" gradientUnits="userSpaceOnUse">
<stop stop-color="#B548BD"/>
<stop offset="1" stop-color="#01F3FD"/>
</linearGradient>
</defs>
</svg>
