<svg width="470" height="620" viewBox="0 0 470 620" fill="none" xmlns="http://www.w3.org/2000/svg">
<path d="M130.272 18.152C129.776 18.152 129.285 18.112 128.8 18.032C128.315 17.9573 127.853 17.8453 127.416 17.696V16.64C127.875 16.7893 128.347 16.904 128.832 16.984C129.323 17.064 129.792 17.104 130.24 17.104C131.253 17.104 132.011 16.904 132.512 16.504C133.019 16.0987 133.272 15.512 133.272 14.744C133.272 14.024 133.035 13.464 132.56 13.064C132.091 12.6587 131.341 12.456 130.312 12.456H128.896V11.4H129.672C130.733 11.4 131.531 11.2 132.064 10.8C132.603 10.4 132.872 9.832 132.872 9.096C132.872 8.43467 132.653 7.93067 132.216 7.584C131.784 7.232 131.141 7.056 130.288 7.056C129.851 7.056 129.413 7.09333 128.976 7.168C128.539 7.23733 128.112 7.34933 127.696 7.504V6.448C127.941 6.35733 128.213 6.28 128.512 6.216C128.811 6.14667 129.12 6.096 129.44 6.064C129.76 6.02667 130.077 6.008 130.392 6.008C131.613 6.008 132.541 6.272 133.176 6.8C133.816 7.32267 134.136 8.06133 134.136 9.016C134.136 9.77867 133.904 10.4187 133.44 10.936C132.981 11.448 132.347 11.7867 131.536 11.952L131.544 11.776C132.509 11.8987 133.248 12.2213 133.76 12.744C134.272 13.2613 134.528 13.9467 134.528 14.8C134.528 15.504 134.368 16.1067 134.048 16.608C133.728 17.104 133.253 17.4853 132.624 17.752C131.995 18.0187 131.211 18.152 130.272 18.152ZM140.164 18.152C139.337 18.152 138.617 17.952 138.004 17.552C137.396 17.152 136.924 16.5067 136.588 15.616C136.257 14.7253 136.092 13.5467 136.092 12.08C136.092 10.6133 136.257 9.43467 136.588 8.544C136.919 7.65333 137.388 7.008 137.996 6.608C138.604 6.208 139.327 6.008 140.164 6.008C141.007 6.008 141.732 6.208 142.34 6.608C142.948 7.008 143.417 7.65333 143.748 8.544C144.079 9.43467 144.244 10.6133 144.244 12.08C144.244 13.5467 144.076 14.7253 143.74 15.616C143.409 16.5067 142.937 17.152 142.324 17.552C141.716 17.952 140.996 18.152 140.164 18.152ZM140.172 17.032C140.732 17.032 141.22 16.8853 141.636 16.592C142.052 16.2987 142.372 15.7947 142.596 15.08C142.825 14.36 142.94 13.368 142.94 12.104C142.94 10.824 142.825 9.824 142.596 9.104C142.372 8.37867 142.052 7.86933 141.636 7.576C141.22 7.27733 140.732 7.128 140.172 7.128C139.607 7.128 139.116 7.27467 138.7 7.568C138.284 7.86133 137.961 8.368 137.732 9.088C137.508 9.80267 137.396 10.792 137.396 12.056C137.396 13.336 137.508 14.3387 137.732 15.064C137.961 15.784 138.284 16.2933 138.7 16.592C139.116 16.8853 139.607 17.032 140.172 17.032ZM146.364 18V9.32H147.444L147.532 10.304H147.62C147.951 9.93067 148.33 9.65067 148.756 9.464C149.188 9.27733 149.647 9.184 150.132 9.184C150.612 9.184 151.042 9.28267 151.42 9.48C151.799 9.67733 152.098 10 152.316 10.448C152.535 10.8907 152.644 11.4853 152.644 12.232V18H151.38V12.312C151.38 11.5653 151.234 11.048 150.94 10.76C150.647 10.472 150.26 10.328 149.78 10.328C149.54 10.328 149.29 10.368 149.028 10.448C148.772 10.528 148.524 10.656 148.284 10.832C148.044 11.0027 147.831 11.232 147.644 11.52V18H146.364ZM156.324 18V12.312C156.324 11.5653 156.17 11.048 155.86 10.76C155.556 10.472 155.164 10.328 154.684 10.328C154.439 10.328 154.178 10.3707 153.9 10.456C153.628 10.536 153.362 10.6773 153.1 10.88C152.844 11.0773 152.62 11.3493 152.428 11.696L152.108 10.664C152.53 10.1147 152.996 9.73067 153.508 9.512C154.02 9.29333 154.514 9.184 154.988 9.184C155.49 9.184 155.938 9.28533 156.332 9.488C156.727 9.68533 157.036 10.008 157.26 10.456C157.49 10.904 157.604 11.504 157.604 12.256V18H156.324ZM159.927 18V9.32H161.207V18H159.927ZM160.567 7.432C160.279 7.432 160.057 7.36267 159.903 7.224C159.753 7.08 159.679 6.88267 159.679 6.632C159.679 6.376 159.753 6.176 159.903 6.032C160.057 5.888 160.279 5.816 160.567 5.816C160.855 5.816 161.073 5.888 161.223 6.032C161.377 6.176 161.455 6.376 161.455 6.632C161.455 6.88267 161.377 7.08 161.223 7.224C161.073 7.36267 160.855 7.432 160.567 7.432ZM163.63 18V9.32H164.71L164.798 10.296H164.886C165.238 9.93867 165.649 9.664 166.118 9.472C166.587 9.28 167.086 9.184 167.614 9.184C168.158 9.184 168.638 9.28533 169.054 9.488C169.475 9.68533 169.803 10.0107 170.038 10.464C170.278 10.912 170.398 11.512 170.398 12.264V18H169.126V12.32C169.126 11.5733 168.961 11.056 168.63 10.768C168.305 10.4747 167.862 10.328 167.302 10.328C167.046 10.328 166.774 10.3653 166.486 10.44C166.198 10.5147 165.915 10.6373 165.638 10.808C165.366 10.9787 165.123 11.2053 164.91 11.488V18H163.63Z" fill="#00E5FF"/>
<path d="M78.028 53V35.24H79.972V53H78.028ZM84.0754 53V39.98H85.6954L85.8274 41.444H85.9594C86.4874 40.908 87.1034 40.496 87.8074 40.208C88.5114 39.92 89.2594 39.776 90.0514 39.776C90.8674 39.776 91.5874 39.928 92.2114 40.232C92.8434 40.528 93.3354 41.016 93.6874 41.696C94.0474 42.368 94.2274 43.268 94.2274 44.396V53H92.3194V44.48C92.3194 43.36 92.0714 42.584 91.5754 42.152C91.0874 41.712 90.4234 41.492 89.5834 41.492C89.1994 41.492 88.7914 41.548 88.3594 41.66C87.9274 41.772 87.5034 41.956 87.0874 42.212C86.6794 42.468 86.3154 42.808 85.9954 43.232V53H84.0754ZM102.924 53.228C101.596 53.228 100.564 52.888 99.8281 52.208C99.0921 51.52 98.7241 50.424 98.7241 48.92V39.98L99.0361 35.24H100.644V48.608C100.644 49.704 100.868 50.472 101.316 50.912C101.772 51.352 102.448 51.572 103.344 51.572C103.584 51.572 103.832 51.556 104.088 51.524C104.344 51.484 104.624 51.432 104.928 51.368V52.988C104.608 53.068 104.28 53.128 103.944 53.168C103.608 53.208 103.268 53.228 102.924 53.228ZM96.2761 41.564V39.98H104.736V41.564H96.2761ZM107.173 53V39.98H108.781L108.937 41.72H109.057C109.505 41.104 110.065 40.64 110.737 40.328C111.417 40.008 112.125 39.848 112.861 39.848C113.061 39.848 113.241 39.856 113.401 39.872C113.569 39.888 113.733 39.912 113.893 39.944V41.72C113.709 41.688 113.525 41.668 113.341 41.66C113.165 41.652 112.973 41.648 112.765 41.648C112.341 41.648 111.897 41.716 111.433 41.852C110.977 41.98 110.545 42.184 110.137 42.464C109.729 42.736 109.381 43.08 109.093 43.496V53H107.173ZM120.616 53.228C119.496 53.228 118.52 52.996 117.688 52.532C116.856 52.06 116.212 51.332 115.756 50.348C115.3 49.356 115.072 48.072 115.072 46.496C115.072 44.936 115.296 43.66 115.744 42.668C116.2 41.676 116.844 40.948 117.676 40.484C118.508 40.012 119.488 39.776 120.616 39.776C121.744 39.776 122.724 40.012 123.556 40.484C124.388 40.948 125.028 41.676 125.476 42.668C125.932 43.652 126.16 44.928 126.16 46.496C126.16 48.056 125.928 49.332 125.464 50.324C125.008 51.316 124.364 52.048 123.532 52.52C122.708 52.992 121.736 53.228 120.616 53.228ZM120.616 51.668C121.352 51.668 121.988 51.508 122.524 51.188C123.06 50.868 123.472 50.336 123.76 49.592C124.056 48.84 124.204 47.82 124.204 46.532C124.204 45.22 124.056 44.188 123.76 43.436C123.472 42.676 123.056 42.14 122.512 41.828C121.976 41.508 121.344 41.348 120.616 41.348C119.88 41.348 119.244 41.508 118.708 41.828C118.172 42.14 117.756 42.672 117.46 43.424C117.172 44.168 117.028 45.184 117.028 46.472C117.028 47.776 117.172 48.808 117.46 49.568C117.756 50.32 118.172 50.86 118.708 51.188C119.244 51.508 119.88 51.668 120.616 51.668ZM142.92 53.228C141.696 53.228 140.588 53.068 139.596 52.748C138.612 52.42 137.768 51.9 137.064 51.188C136.36 50.476 135.82 49.54 135.444 48.38C135.068 47.22 134.88 45.812 134.88 44.156C134.88 42.012 135.208 40.268 135.864 38.924C136.52 37.58 137.46 36.592 138.684 35.96C139.916 35.328 141.392 35.012 143.112 35.012C143.8 35.012 144.456 35.056 145.08 35.144C145.712 35.232 146.336 35.36 146.952 35.528V37.232C146.328 37.04 145.704 36.904 145.08 36.824C144.464 36.744 143.832 36.704 143.184 36.704C141.84 36.704 140.7 36.944 139.764 37.424C138.836 37.896 138.132 38.676 137.652 39.764C137.172 40.844 136.932 42.292 136.932 44.108C136.932 45.98 137.176 47.46 137.664 48.548C138.152 49.628 138.852 50.396 139.764 50.852C140.684 51.308 141.784 51.536 143.064 51.536C143.72 51.536 144.356 51.484 144.972 51.38C145.588 51.276 146.248 51.108 146.952 50.876V52.568C146.36 52.776 145.724 52.936 145.044 53.048C144.372 53.168 143.664 53.228 142.92 53.228ZM152.493 53.216C151.269 53.216 150.305 52.9 149.601 52.268C148.905 51.636 148.557 50.768 148.557 49.664C148.557 48.528 148.929 47.644 149.673 47.012C150.425 46.372 151.629 45.972 153.285 45.812L156.777 45.44L156.957 46.712L153.405 47.096C152.373 47.2 151.629 47.452 151.173 47.852C150.725 48.244 150.501 48.788 150.501 49.484C150.501 50.212 150.709 50.768 151.125 51.152C151.541 51.536 152.161 51.728 152.985 51.728C153.553 51.728 154.125 51.608 154.701 51.368C155.277 51.12 155.793 50.708 156.249 50.132V44.384C156.249 43.584 156.125 42.968 155.877 42.536C155.629 42.096 155.257 41.788 154.761 41.612C154.265 41.436 153.641 41.348 152.889 41.348C152.401 41.348 151.845 41.392 151.221 41.48C150.605 41.568 149.989 41.716 149.373 41.924V40.352C149.933 40.168 150.549 40.028 151.221 39.932C151.901 39.828 152.541 39.776 153.141 39.776C154.245 39.776 155.165 39.92 155.901 40.208C156.645 40.496 157.201 40.984 157.569 41.672C157.945 42.352 158.133 43.284 158.133 44.468V53H156.525L156.381 51.548H156.261C155.837 52.084 155.293 52.496 154.629 52.784C153.973 53.072 153.261 53.216 152.493 53.216ZM161.857 53V33.608H163.777V53H161.857ZM167.652 53V33.608H169.572V53H167.652Z" fill="#E7E9F7"/>
<path d="M255.384 159.16V158.44L259.976 150.16H261.28L256.688 158.448L256.504 158.104H264.12V159.16H255.384ZM261.248 162V158.104L261.408 154.16H262.448V162H261.248ZM269.705 162.152C268.766 162.152 267.979 162.027 267.345 161.776C266.71 161.525 266.233 161.168 265.913 160.704C265.593 160.24 265.433 159.683 265.433 159.032C265.433 158.269 265.657 157.611 266.105 157.056C266.558 156.501 267.187 156.091 267.993 155.824L268.969 156.232C268.222 156.445 267.654 156.792 267.265 157.272C266.875 157.747 266.681 158.293 266.681 158.912C266.681 159.637 266.934 160.195 267.441 160.584C267.953 160.968 268.71 161.16 269.713 161.16C270.646 161.16 271.358 160.976 271.849 160.608C272.339 160.235 272.585 159.709 272.585 159.032C272.585 158.6 272.491 158.235 272.305 157.936C272.118 157.637 271.806 157.381 271.369 157.168C270.931 156.955 270.337 156.757 269.585 156.576C268.662 156.357 267.923 156.088 267.369 155.768C266.819 155.443 266.422 155.061 266.177 154.624C265.937 154.181 265.817 153.672 265.817 153.096C265.817 152.472 265.966 151.931 266.265 151.472C266.563 151.008 267.001 150.648 267.577 150.392C268.153 150.136 268.849 150.008 269.665 150.008C270.849 150.008 271.774 150.275 272.441 150.808C273.113 151.341 273.449 152.072 273.449 153C273.449 153.469 273.361 153.901 273.185 154.296C273.014 154.691 272.755 155.04 272.409 155.344C272.062 155.648 271.625 155.904 271.097 156.112L270.185 155.712C270.926 155.397 271.459 155.037 271.785 154.632C272.115 154.221 272.281 153.709 272.281 153.096C272.281 152.413 272.051 151.893 271.593 151.536C271.134 151.179 270.486 151 269.649 151C268.795 151 268.153 151.187 267.721 151.56C267.294 151.928 267.081 152.427 267.081 153.056C267.081 153.477 267.169 153.84 267.345 154.144C267.521 154.448 267.827 154.715 268.265 154.944C268.702 155.173 269.31 155.381 270.089 155.568C271.011 155.797 271.745 156.067 272.289 156.376C272.838 156.685 273.233 157.051 273.473 157.472C273.713 157.893 273.833 158.387 273.833 158.952C273.833 159.587 273.673 160.144 273.353 160.624C273.038 161.104 272.574 161.48 271.961 161.752C271.347 162.019 270.595 162.152 269.705 162.152ZM279.739 162V149.072H281.019V154.288H281.091C281.443 153.92 281.849 153.645 282.307 153.464C282.766 153.277 283.254 153.184 283.771 153.184C284.299 153.184 284.769 153.285 285.179 153.488C285.595 153.685 285.921 154.008 286.155 154.456C286.39 154.904 286.507 155.504 286.507 156.256V162H285.235V156.312C285.235 155.565 285.067 155.051 284.731 154.768C284.401 154.48 283.961 154.336 283.411 154.336C283.145 154.336 282.867 154.376 282.579 154.456C282.291 154.531 282.011 154.653 281.739 154.824C281.467 154.989 281.227 155.211 281.019 155.488V162H279.739ZM292.073 162.152C291.326 162.152 290.676 161.997 290.121 161.688C289.566 161.373 289.137 160.888 288.833 160.232C288.529 159.571 288.377 158.715 288.377 157.664C288.377 156.624 288.526 155.773 288.825 155.112C289.129 154.451 289.558 153.965 290.113 153.656C290.668 153.341 291.321 153.184 292.073 153.184C292.825 153.184 293.478 153.341 294.033 153.656C294.588 153.965 295.014 154.451 295.313 155.112C295.617 155.768 295.769 156.619 295.769 157.664C295.769 158.704 295.614 159.555 295.305 160.216C295.001 160.877 294.572 161.365 294.017 161.68C293.468 161.995 292.82 162.152 292.073 162.152ZM292.073 161.112C292.564 161.112 292.988 161.005 293.345 160.792C293.702 160.579 293.977 160.224 294.169 159.728C294.366 159.227 294.465 158.547 294.465 157.688C294.465 156.813 294.366 156.125 294.169 155.624C293.977 155.117 293.7 154.76 293.337 154.552C292.98 154.339 292.558 154.232 292.073 154.232C291.582 154.232 291.158 154.339 290.801 154.552C290.444 154.76 290.166 155.115 289.969 155.616C289.777 156.112 289.681 156.789 289.681 157.648C289.681 158.517 289.777 159.205 289.969 159.712C290.166 160.213 290.444 160.573 290.801 160.792C291.158 161.005 291.582 161.112 292.073 161.112ZM300.404 162.144C299.865 162.144 299.388 162.045 298.972 161.848C298.556 161.651 298.228 161.328 297.988 160.88C297.748 160.432 297.628 159.832 297.628 159.08V153.32H298.908V159.024C298.908 159.765 299.073 160.283 299.404 160.576C299.734 160.864 300.161 161.008 300.684 161.008C300.945 161.008 301.217 160.968 301.5 160.888C301.788 160.808 302.065 160.683 302.332 160.512C302.598 160.341 302.836 160.12 303.044 159.848V153.32H304.324V162H303.244L303.156 161.048H303.076C302.713 161.411 302.302 161.685 301.844 161.872C301.385 162.053 300.905 162.144 300.404 162.144ZM306.739 162V153.32H307.811L307.915 154.48H307.995C308.294 154.069 308.667 153.76 309.115 153.552C309.569 153.339 310.041 153.232 310.531 153.232C310.665 153.232 310.785 153.237 310.891 153.248C311.003 153.259 311.113 153.275 311.219 153.296V154.48C311.097 154.459 310.974 154.445 310.851 154.44C310.734 154.435 310.606 154.432 310.467 154.432C310.185 154.432 309.889 154.477 309.579 154.568C309.275 154.653 308.987 154.789 308.715 154.976C308.443 155.157 308.211 155.387 308.019 155.664V162H306.739ZM314.53 162.152C314.093 162.152 313.674 162.123 313.274 162.064C312.879 162.005 312.495 161.917 312.122 161.8V160.776C312.549 160.904 312.957 160.997 313.346 161.056C313.735 161.109 314.13 161.136 314.53 161.136C315.282 161.136 315.826 161.008 316.162 160.752C316.503 160.496 316.674 160.136 316.674 159.672C316.674 159.277 316.573 158.976 316.37 158.768C316.167 158.555 315.823 158.397 315.338 158.296L314.162 158.056C313.373 157.885 312.807 157.605 312.466 157.216C312.13 156.821 311.962 156.315 311.962 155.696C311.962 154.965 312.242 154.365 312.802 153.896C313.367 153.421 314.234 153.184 315.402 153.184C315.775 153.184 316.13 153.205 316.466 153.248C316.807 153.291 317.135 153.355 317.45 153.44V154.472C317.098 154.376 316.759 154.307 316.434 154.264C316.114 154.221 315.778 154.2 315.426 154.2C314.877 154.2 314.437 154.267 314.106 154.4C313.781 154.528 313.546 154.704 313.402 154.928C313.258 155.147 313.186 155.392 313.186 155.664C313.186 156.005 313.282 156.288 313.474 156.512C313.666 156.736 314.002 156.901 314.482 157.008L315.658 157.248C316.458 157.413 317.031 157.685 317.378 158.064C317.73 158.443 317.906 158.957 317.906 159.608C317.906 160.392 317.618 161.013 317.042 161.472C316.471 161.925 315.634 162.152 314.53 162.152Z" fill="#00E5FF"/>
<path d="M260.544 197.228C259.84 197.228 259.104 197.168 258.336 197.048C257.576 196.928 256.852 196.748 256.164 196.508V194.828C256.66 194.996 257.16 195.136 257.664 195.248C258.176 195.352 258.676 195.432 259.164 195.488C259.652 195.544 260.12 195.572 260.568 195.572C262.04 195.572 263.128 195.296 263.832 194.744C264.536 194.184 264.888 193.372 264.888 192.308C264.888 191.404 264.62 190.716 264.084 190.244C263.556 189.764 262.652 189.356 261.372 189.02L260.412 188.768C258.9 188.384 257.768 187.804 257.016 187.028C256.264 186.244 255.888 185.212 255.888 183.932C255.888 182.404 256.416 181.204 257.472 180.332C258.536 179.452 260.116 179.012 262.212 179.012C262.9 179.012 263.58 179.06 264.252 179.156C264.924 179.244 265.536 179.376 266.088 179.552V181.232C265.48 181.04 264.852 180.9 264.204 180.812C263.564 180.716 262.916 180.668 262.26 180.668C261.244 180.668 260.412 180.792 259.764 181.04C259.116 181.288 258.636 181.648 258.324 182.12C258.012 182.592 257.856 183.16 257.856 183.824C257.856 184.696 258.1 185.372 258.588 185.852C259.076 186.332 259.92 186.732 261.12 187.052L262.092 187.292C263.18 187.572 264.076 187.932 264.78 188.372C265.484 188.804 266.008 189.336 266.352 189.968C266.696 190.592 266.868 191.332 266.868 192.188C266.868 193.26 266.62 194.172 266.124 194.924C265.628 195.668 264.908 196.24 263.964 196.64C263.02 197.032 261.88 197.228 260.544 197.228ZM269.802 197V183.98H271.722V197H269.802ZM270.762 181.148C270.33 181.148 269.998 181.044 269.766 180.836C269.542 180.62 269.43 180.324 269.43 179.948C269.43 179.564 269.542 179.264 269.766 179.048C269.998 178.832 270.33 178.724 270.762 178.724C271.194 178.724 271.522 178.832 271.746 179.048C271.978 179.264 272.094 179.564 272.094 179.948C272.094 180.324 271.978 180.62 271.746 180.836C271.522 181.044 271.194 181.148 270.762 181.148ZM279.581 202.52C278.981 202.52 278.337 202.468 277.649 202.364C276.969 202.268 276.333 202.124 275.741 201.932V200.324C276.421 200.532 277.069 200.684 277.685 200.78C278.309 200.884 278.905 200.936 279.473 200.936C280.881 200.936 281.921 200.632 282.593 200.024C283.265 199.424 283.601 198.38 283.601 196.892V195.62H283.493C283.101 196.076 282.597 196.448 281.981 196.736C281.373 197.024 280.677 197.168 279.893 197.168C278.989 197.168 278.161 196.96 277.409 196.544C276.657 196.12 276.053 195.44 275.597 194.504C275.141 193.56 274.913 192.308 274.913 190.748C274.913 188.412 275.469 186.668 276.581 185.516C277.701 184.356 279.345 183.776 281.513 183.776C281.961 183.776 282.417 183.8 282.881 183.848C283.353 183.896 283.813 183.964 284.261 184.052C284.709 184.14 285.129 184.244 285.521 184.364V196.604C285.521 198.716 285.025 200.228 284.033 201.14C283.041 202.06 281.557 202.52 279.581 202.52ZM280.457 195.524C281.041 195.524 281.613 195.4 282.173 195.152C282.741 194.904 283.217 194.524 283.601 194.012V185.612C283.313 185.54 282.973 185.48 282.581 185.432C282.189 185.376 281.781 185.348 281.357 185.348C279.901 185.348 278.789 185.756 278.021 186.572C277.253 187.38 276.869 188.712 276.869 190.568C276.869 191.856 277.025 192.86 277.337 193.58C277.649 194.3 278.073 194.804 278.609 195.092C279.153 195.38 279.769 195.524 280.457 195.524ZM289.384 197V183.98H291.004L291.136 185.444H291.268C291.796 184.908 292.412 184.496 293.116 184.208C293.82 183.92 294.568 183.776 295.36 183.776C296.176 183.776 296.896 183.928 297.52 184.232C298.152 184.528 298.644 185.016 298.996 185.696C299.356 186.368 299.536 187.268 299.536 188.396V197H297.628V188.48C297.628 187.36 297.38 186.584 296.884 186.152C296.396 185.712 295.732 185.492 294.892 185.492C294.508 185.492 294.1 185.548 293.668 185.66C293.236 185.772 292.812 185.956 292.396 186.212C291.988 186.468 291.624 186.808 291.304 187.232V197H289.384ZM309.58 197V179.24H311.584L321.796 194.768H321.316V179.24H323.152V197H321.148L310.948 181.472H311.428V197H309.58ZM331.645 197.144C331.197 197.144 330.753 197.132 330.313 197.108C329.873 197.092 329.417 197.064 328.945 197.024C328.473 196.992 327.973 196.948 327.445 196.892V179.528C327.925 179.432 328.425 179.348 328.945 179.276C329.473 179.204 330.001 179.152 330.529 179.12C331.065 179.08 331.585 179.06 332.089 179.06C335.017 179.06 337.225 179.8 338.713 181.28C340.209 182.76 340.957 185.04 340.957 188.12C340.957 190.208 340.609 191.916 339.913 193.244C339.217 194.572 338.177 195.556 336.793 196.196C335.417 196.828 333.701 197.144 331.645 197.144ZM332.029 195.476C333.573 195.476 334.857 195.228 335.881 194.732C336.905 194.228 337.669 193.436 338.173 192.356C338.685 191.268 338.941 189.852 338.941 188.108C338.941 186.388 338.689 184.984 338.185 183.896C337.689 182.808 336.937 182.008 335.929 181.496C334.929 180.976 333.669 180.716 332.149 180.716C331.717 180.716 331.269 180.736 330.805 180.776C330.341 180.816 329.869 180.876 329.389 180.956V195.332C329.805 195.38 330.221 195.416 330.637 195.44C331.061 195.464 331.525 195.476 332.029 195.476ZM342.481 197L348.853 179.24H351.601L357.973 197H355.993L350.041 180.164H350.377L344.425 197H342.481ZM345.817 191.252L346.273 189.608H354.169L354.625 191.252H345.817ZM257.028 235V217.504C257.764 217.36 258.5 217.248 259.236 217.168C259.98 217.088 260.764 217.048 261.588 217.048C263.932 217.048 265.704 217.536 266.904 218.512C268.112 219.48 268.716 221.012 268.716 223.108C268.716 225.076 268.116 226.58 266.916 227.62C265.724 228.66 263.856 229.18 261.312 229.18C260.896 229.18 260.504 229.172 260.136 229.156C259.776 229.132 259.388 229.104 258.972 229.072V235H257.028ZM261.348 227.596C263.26 227.596 264.644 227.232 265.5 226.504C266.356 225.768 266.784 224.648 266.784 223.144C266.784 221.568 266.364 220.424 265.524 219.712C264.692 218.992 263.424 218.632 261.72 218.632C261.2 218.632 260.716 218.652 260.268 218.692C259.828 218.724 259.396 218.776 258.972 218.848V227.452C259.364 227.508 259.748 227.548 260.124 227.572C260.508 227.588 260.916 227.596 261.348 227.596ZM271.841 235V221.98H273.449L273.605 223.72H273.725C274.173 223.104 274.733 222.64 275.405 222.328C276.085 222.008 276.793 221.848 277.529 221.848C277.729 221.848 277.909 221.856 278.069 221.872C278.237 221.888 278.401 221.912 278.561 221.944V223.72C278.377 223.688 278.193 223.668 278.009 223.66C277.833 223.652 277.641 223.648 277.433 223.648C277.009 223.648 276.565 223.716 276.101 223.852C275.645 223.98 275.213 224.184 274.805 224.464C274.397 224.736 274.049 225.08 273.761 225.496V235H271.841ZM285.909 235.228C284.557 235.228 283.421 235 282.501 234.544C281.589 234.08 280.901 233.356 280.437 232.372C279.973 231.38 279.741 230.084 279.741 228.484C279.741 226.956 279.953 225.696 280.377 224.704C280.809 223.712 281.417 222.976 282.201 222.496C282.993 222.016 283.929 221.776 285.009 221.776C286.073 221.776 286.977 222.02 287.721 222.508C288.473 222.988 289.045 223.728 289.437 224.728C289.829 225.72 290.025 226.988 290.025 228.532V229.12H280.785V227.812H288.609L288.189 228.1C288.189 226.884 288.061 225.916 287.805 225.196C287.557 224.476 287.193 223.96 286.713 223.648C286.241 223.328 285.665 223.168 284.985 223.168C284.313 223.168 283.729 223.324 283.233 223.636C282.737 223.948 282.353 224.464 282.081 225.184C281.817 225.904 281.685 226.876 281.685 228.1V228.772C281.685 229.972 281.845 230.932 282.165 231.652C282.493 232.364 282.985 232.88 283.641 233.2C284.297 233.512 285.129 233.668 286.137 233.668C286.633 233.668 287.145 233.624 287.673 233.536C288.209 233.44 288.777 233.308 289.377 233.14V234.712C288.753 234.888 288.157 235.016 287.589 235.096C287.029 235.184 286.469 235.228 285.909 235.228ZM293.016 235V215.608H294.936V235H293.016ZM298.811 235V221.98H300.731V235H298.811ZM299.771 219.148C299.339 219.148 299.007 219.044 298.775 218.836C298.551 218.62 298.439 218.324 298.439 217.948C298.439 217.564 298.551 217.264 298.775 217.048C299.007 216.832 299.339 216.724 299.771 216.724C300.203 216.724 300.531 216.832 300.755 217.048C300.987 217.264 301.103 217.564 301.103 217.948C301.103 218.324 300.987 218.62 300.755 218.836C300.531 219.044 300.203 219.148 299.771 219.148ZM304.606 235V221.98H306.226L306.358 223.456H306.49C306.986 222.896 307.554 222.476 308.194 222.196C308.842 221.916 309.53 221.776 310.258 221.776C310.978 221.776 311.622 221.924 312.19 222.22C312.758 222.516 313.206 223 313.534 223.672C313.862 224.336 314.026 225.228 314.026 226.348V235H312.13V226.468C312.13 225.348 311.91 224.572 311.47 224.14C311.03 223.708 310.45 223.492 309.73 223.492C309.37 223.492 308.994 223.552 308.602 223.672C308.218 223.792 307.846 223.984 307.486 224.248C307.126 224.504 306.806 224.848 306.526 225.28V235H304.606ZM319.546 235V226.468C319.546 225.348 319.314 224.572 318.85 224.14C318.394 223.708 317.806 223.492 317.086 223.492C316.718 223.492 316.326 223.556 315.91 223.684C315.502 223.804 315.102 224.016 314.71 224.32C314.326 224.616 313.99 225.024 313.702 225.544L313.222 223.996C313.854 223.172 314.554 222.596 315.322 222.268C316.09 221.94 316.83 221.776 317.542 221.776C318.294 221.776 318.966 221.928 319.558 222.232C320.15 222.528 320.614 223.012 320.95 223.684C321.294 224.356 321.466 225.256 321.466 226.384V235H319.546ZM325.19 235V221.98H327.11V235H325.19ZM326.15 219.148C325.718 219.148 325.386 219.044 325.154 218.836C324.93 218.62 324.818 218.324 324.818 217.948C324.818 217.564 324.93 217.264 325.154 217.048C325.386 216.832 325.718 216.724 326.15 216.724C326.582 216.724 326.91 216.832 327.134 217.048C327.366 217.264 327.482 217.564 327.482 217.948C327.482 218.324 327.366 218.62 327.134 218.836C326.91 219.044 326.582 219.148 326.15 219.148ZM330.984 235V221.98H332.604L332.736 223.444H332.868C333.396 222.908 334.012 222.496 334.716 222.208C335.42 221.92 336.168 221.776 336.96 221.776C337.776 221.776 338.496 221.928 339.12 222.232C339.752 222.528 340.244 223.016 340.596 223.696C340.956 224.368 341.136 225.268 341.136 226.396V235H339.228V226.48C339.228 225.36 338.98 224.584 338.484 224.152C337.996 223.712 337.332 223.492 336.492 223.492C336.108 223.492 335.7 223.548 335.268 223.66C334.836 223.772 334.412 223.956 333.996 224.212C333.588 224.468 333.224 224.808 332.904 225.232V235H330.984ZM348.093 235.216C346.869 235.216 345.905 234.9 345.201 234.268C344.505 233.636 344.157 232.768 344.157 231.664C344.157 230.528 344.529 229.644 345.273 229.012C346.025 228.372 347.229 227.972 348.885 227.812L352.377 227.44L352.557 228.712L349.005 229.096C347.973 229.2 347.229 229.452 346.773 229.852C346.325 230.244 346.101 230.788 346.101 231.484C346.101 232.212 346.309 232.768 346.725 233.152C347.141 233.536 347.761 233.728 348.585 233.728C349.153 233.728 349.725 233.608 350.301 233.368C350.877 233.12 351.393 232.708 351.849 232.132V226.384C351.849 225.584 351.725 224.968 351.477 224.536C351.229 224.096 350.857 223.788 350.361 223.612C349.865 223.436 349.241 223.348 348.489 223.348C348.001 223.348 347.445 223.392 346.821 223.48C346.205 223.568 345.589 223.716 344.973 223.924V222.352C345.533 222.168 346.149 222.028 346.821 221.932C347.501 221.828 348.141 221.776 348.741 221.776C349.845 221.776 350.765 221.92 351.501 222.208C352.245 222.496 352.801 222.984 353.169 223.672C353.545 224.352 353.733 225.284 353.733 226.468V235H352.125L351.981 233.548H351.861C351.437 234.084 350.893 234.496 350.229 234.784C349.573 235.072 348.861 235.216 348.093 235.216ZM357.456 235V221.98H359.064L359.22 223.72H359.34C359.788 223.104 360.348 222.64 361.02 222.328C361.7 222.008 362.408 221.848 363.144 221.848C363.344 221.848 363.524 221.856 363.684 221.872C363.852 221.888 364.016 221.912 364.176 221.944V223.72C363.992 223.688 363.808 223.668 363.624 223.66C363.448 223.652 363.256 223.648 363.048 223.648C362.624 223.648 362.18 223.716 361.716 223.852C361.26 223.98 360.828 224.184 360.42 224.464C360.012 224.736 359.664 225.08 359.376 225.496V235H357.456ZM368.685 240.28L370.689 235L371.301 233.62L375.597 221.98H377.529L370.605 240.28H368.685ZM370.137 235L365.205 221.98H367.257L371.973 235H370.137ZM389.108 235.216C387.884 235.216 386.92 234.9 386.216 234.268C385.52 233.636 385.172 232.768 385.172 231.664C385.172 230.528 385.544 229.644 386.288 229.012C387.04 228.372 388.244 227.972 389.9 227.812L393.392 227.44L393.572 228.712L390.02 229.096C388.988 229.2 388.244 229.452 387.788 229.852C387.34 230.244 387.116 230.788 387.116 231.484C387.116 232.212 387.324 232.768 387.74 233.152C388.156 233.536 388.776 233.728 389.6 233.728C390.168 233.728 390.74 233.608 391.316 233.368C391.892 233.12 392.408 232.708 392.864 232.132V226.384C392.864 225.584 392.74 224.968 392.492 224.536C392.244 224.096 391.872 223.788 391.376 223.612C390.88 223.436 390.256 223.348 389.504 223.348C389.016 223.348 388.46 223.392 387.836 223.48C387.22 223.568 386.604 223.716 385.988 223.924V222.352C386.548 222.168 387.164 222.028 387.836 221.932C388.516 221.828 389.156 221.776 389.756 221.776C390.86 221.776 391.78 221.92 392.516 222.208C393.26 222.496 393.816 222.984 394.184 223.672C394.56 224.352 394.748 225.284 394.748 226.468V235H393.14L392.996 233.548H392.876C392.452 234.084 391.908 234.496 391.244 234.784C390.588 235.072 389.876 235.216 389.108 235.216ZM398.471 235V221.98H400.091L400.223 223.444H400.355C400.883 222.908 401.499 222.496 402.203 222.208C402.907 221.92 403.655 221.776 404.447 221.776C405.263 221.776 405.983 221.928 406.607 222.232C407.239 222.528 407.731 223.016 408.083 223.696C408.443 224.368 408.623 225.268 408.623 226.396V235H406.715V226.48C406.715 225.36 406.467 224.584 405.971 224.152C405.483 223.712 404.819 223.492 403.979 223.492C403.595 223.492 403.187 223.548 402.755 223.66C402.323 223.772 401.899 223.956 401.483 224.212C401.075 224.468 400.711 224.808 400.391 225.232V235H398.471ZM415.58 235.216C414.356 235.216 413.392 234.9 412.688 234.268C411.992 233.636 411.644 232.768 411.644 231.664C411.644 230.528 412.016 229.644 412.76 229.012C413.512 228.372 414.716 227.972 416.372 227.812L419.864 227.44L420.044 228.712L416.492 229.096C415.46 229.2 414.716 229.452 414.26 229.852C413.812 230.244 413.588 230.788 413.588 231.484C413.588 232.212 413.796 232.768 414.212 233.152C414.628 233.536 415.248 233.728 416.072 233.728C416.64 233.728 417.212 233.608 417.788 233.368C418.364 233.12 418.88 232.708 419.336 232.132V226.384C419.336 225.584 419.212 224.968 418.964 224.536C418.716 224.096 418.344 223.788 417.848 223.612C417.352 223.436 416.728 223.348 415.976 223.348C415.488 223.348 414.932 223.392 414.308 223.48C413.692 223.568 413.076 223.716 412.46 223.924V222.352C413.02 222.168 413.636 222.028 414.308 221.932C414.988 221.828 415.628 221.776 416.228 221.776C417.332 221.776 418.252 221.92 418.988 222.208C419.732 222.496 420.288 222.984 420.656 223.672C421.032 224.352 421.22 225.284 421.22 226.468V235H419.612L419.468 233.548H419.348C418.924 234.084 418.38 234.496 417.716 234.784C417.06 235.072 416.348 235.216 415.58 235.216ZM424.943 235V215.608H426.863V235H424.943ZM432.586 240.28L434.59 235L435.202 233.62L439.498 221.98H441.43L434.506 240.28H432.586ZM434.038 235L429.106 221.98H431.158L435.874 235H434.038ZM446.602 235.228C445.946 235.228 445.318 235.184 444.718 235.096C444.126 235.008 443.55 234.876 442.99 234.7V233.164C443.63 233.356 444.242 233.496 444.826 233.584C445.41 233.664 446.002 233.704 446.602 233.704C447.73 233.704 448.546 233.512 449.05 233.128C449.562 232.744 449.818 232.204 449.818 231.508C449.818 230.916 449.666 230.464 449.362 230.152C449.058 229.832 448.542 229.596 447.814 229.444L446.05 229.084C444.866 228.828 444.018 228.408 443.506 227.824C443.002 227.232 442.75 226.472 442.75 225.544C442.75 224.448 443.17 223.548 444.01 222.844C444.858 222.132 446.158 221.776 447.91 221.776C448.47 221.776 449.002 221.808 449.506 221.872C450.018 221.936 450.51 222.032 450.982 222.16V223.708C450.454 223.564 449.946 223.46 449.458 223.396C448.978 223.332 448.474 223.3 447.946 223.3C447.122 223.3 446.462 223.4 445.966 223.6C445.478 223.792 445.126 224.056 444.91 224.392C444.694 224.72 444.586 225.088 444.586 225.496C444.586 226.008 444.73 226.432 445.018 226.768C445.306 227.104 445.81 227.352 446.53 227.512L448.294 227.872C449.494 228.12 450.354 228.528 450.874 229.096C451.402 229.664 451.666 230.436 451.666 231.412C451.666 232.588 451.234 233.52 450.37 234.208C449.514 234.888 448.258 235.228 446.602 235.228ZM454.538 235V221.98H456.458V235H454.538ZM455.498 219.148C455.066 219.148 454.734 219.044 454.502 218.836C454.278 218.62 454.166 218.324 454.166 217.948C454.166 217.564 454.278 217.264 454.502 217.048C454.734 216.832 455.066 216.724 455.498 216.724C455.93 216.724 456.258 216.832 456.482 217.048C456.714 217.264 456.83 217.564 456.83 217.948C456.83 218.324 456.714 218.62 456.482 218.836C456.258 219.044 455.93 219.148 455.498 219.148ZM463.441 235.228C462.785 235.228 462.157 235.184 461.557 235.096C460.965 235.008 460.389 234.876 459.829 234.7V233.164C460.469 233.356 461.081 233.496 461.665 233.584C462.249 233.664 462.841 233.704 463.441 233.704C464.569 233.704 465.385 233.512 465.889 233.128C466.401 232.744 466.657 232.204 466.657 231.508C466.657 230.916 466.505 230.464 466.201 230.152C465.897 229.832 465.381 229.596 464.653 229.444L462.889 229.084C461.705 228.828 460.857 228.408 460.345 227.824C459.841 227.232 459.589 226.472 459.589 225.544C459.589 224.448 460.009 223.548 460.849 222.844C461.697 222.132 462.997 221.776 464.749 221.776C465.309 221.776 465.841 221.808 466.345 221.872C466.857 221.936 467.349 222.032 467.821 222.16V223.708C467.293 223.564 466.785 223.46 466.297 223.396C465.817 223.332 465.313 223.3 464.785 223.3C463.961 223.3 463.301 223.4 462.805 223.6C462.317 223.792 461.965 224.056 461.749 224.392C461.533 224.72 461.425 225.088 461.425 225.496C461.425 226.008 461.569 226.432 461.857 226.768C462.145 227.104 462.649 227.352 463.369 227.512L465.133 227.872C466.333 228.12 467.193 228.528 467.713 229.096C468.241 229.664 468.505 230.436 468.505 231.412C468.505 232.588 468.073 233.52 467.209 234.208C466.353 234.888 465.097 235.228 463.441 235.228ZM260.544 273.228C259.84 273.228 259.104 273.168 258.336 273.048C257.576 272.928 256.852 272.748 256.164 272.508V270.828C256.66 270.996 257.16 271.136 257.664 271.248C258.176 271.352 258.676 271.432 259.164 271.488C259.652 271.544 260.12 271.572 260.568 271.572C262.04 271.572 263.128 271.296 263.832 270.744C264.536 270.184 264.888 269.372 264.888 268.308C264.888 267.404 264.62 266.716 264.084 266.244C263.556 265.764 262.652 265.356 261.372 265.02L260.412 264.768C258.9 264.384 257.768 263.804 257.016 263.028C256.264 262.244 255.888 261.212 255.888 259.932C255.888 258.404 256.416 257.204 257.472 256.332C258.536 255.452 260.116 255.012 262.212 255.012C262.9 255.012 263.58 255.06 264.252 255.156C264.924 255.244 265.536 255.376 266.088 255.552V257.232C265.48 257.04 264.852 256.9 264.204 256.812C263.564 256.716 262.916 256.668 262.26 256.668C261.244 256.668 260.412 256.792 259.764 257.04C259.116 257.288 258.636 257.648 258.324 258.12C258.012 258.592 257.856 259.16 257.856 259.824C257.856 260.696 258.1 261.372 258.588 261.852C259.076 262.332 259.92 262.732 261.12 263.052L262.092 263.292C263.18 263.572 264.076 263.932 264.78 264.372C265.484 264.804 266.008 265.336 266.352 265.968C266.696 266.592 266.868 267.332 266.868 268.188C266.868 269.26 266.62 270.172 266.124 270.924C265.628 271.668 264.908 272.24 263.964 272.64C263.02 273.032 261.88 273.228 260.544 273.228ZM273.822 273.216C273.014 273.216 272.298 273.068 271.674 272.772C271.05 272.476 270.558 271.992 270.198 271.32C269.838 270.648 269.658 269.748 269.658 268.62V259.98H271.578V268.536C271.578 269.648 271.826 270.424 272.322 270.864C272.818 271.296 273.458 271.512 274.242 271.512C274.634 271.512 275.042 271.452 275.466 271.332C275.898 271.212 276.314 271.024 276.714 270.768C277.114 270.512 277.47 270.18 277.782 269.772V259.98H279.702V273H278.082L277.95 271.572H277.83C277.286 272.116 276.67 272.528 275.982 272.808C275.294 273.08 274.574 273.216 273.822 273.216ZM287.585 273.228C286.905 273.228 286.217 273.176 285.521 273.072C284.825 272.976 284.173 272.832 283.565 272.64V253.608H285.485V261.324H285.593C285.993 260.868 286.497 260.496 287.105 260.208C287.721 259.92 288.421 259.776 289.205 259.776C290.109 259.776 290.937 259.988 291.689 260.412C292.441 260.828 293.041 261.512 293.489 262.464C293.945 263.408 294.173 264.668 294.173 266.244C294.173 268.596 293.613 270.348 292.493 271.5C291.381 272.652 289.745 273.228 287.585 273.228ZM287.729 271.656C289.201 271.656 290.317 271.248 291.077 270.432C291.837 269.616 292.217 268.276 292.217 266.412C292.217 265.116 292.061 264.108 291.749 263.388C291.437 262.668 291.009 262.164 290.465 261.876C289.929 261.58 289.321 261.432 288.641 261.432C288.049 261.432 287.469 261.556 286.901 261.804C286.341 262.044 285.869 262.424 285.485 262.944V271.368C285.773 271.448 286.113 271.516 286.505 271.572C286.905 271.628 287.313 271.656 287.729 271.656ZM297.352 273V259.98H298.972L299.104 261.456H299.236C299.732 260.896 300.3 260.476 300.94 260.196C301.588 259.916 302.276 259.776 303.004 259.776C303.724 259.776 304.368 259.924 304.936 260.22C305.504 260.516 305.952 261 306.28 261.672C306.608 262.336 306.772 263.228 306.772 264.348V273H304.876V264.468C304.876 263.348 304.656 262.572 304.216 262.14C303.776 261.708 303.196 261.492 302.476 261.492C302.116 261.492 301.74 261.552 301.348 261.672C300.964 261.792 300.592 261.984 300.232 262.248C299.872 262.504 299.552 262.848 299.272 263.28V273H297.352ZM312.292 273V264.468C312.292 263.348 312.06 262.572 311.596 262.14C311.14 261.708 310.552 261.492 309.832 261.492C309.464 261.492 309.072 261.556 308.656 261.684C308.248 261.804 307.848 262.016 307.456 262.32C307.072 262.616 306.736 263.024 306.448 263.544L305.968 261.996C306.6 261.172 307.3 260.596 308.068 260.268C308.836 259.94 309.576 259.776 310.288 259.776C311.04 259.776 311.712 259.928 312.304 260.232C312.896 260.528 313.36 261.012 313.696 261.684C314.04 262.356 314.212 263.256 314.212 264.384V273H312.292ZM317.936 273V259.98H319.856V273H317.936ZM318.896 257.148C318.464 257.148 318.132 257.044 317.9 256.836C317.676 256.62 317.564 256.324 317.564 255.948C317.564 255.564 317.676 255.264 317.9 255.048C318.132 254.832 318.464 254.724 318.896 254.724C319.328 254.724 319.656 254.832 319.88 255.048C320.112 255.264 320.228 255.564 320.228 255.948C320.228 256.324 320.112 256.62 319.88 256.836C319.656 257.044 319.328 257.148 318.896 257.148ZM328.699 273.228C327.371 273.228 326.339 272.888 325.603 272.208C324.867 271.52 324.499 270.424 324.499 268.92V259.98L324.811 255.24H326.419V268.608C326.419 269.704 326.643 270.472 327.091 270.912C327.547 271.352 328.223 271.572 329.119 271.572C329.359 271.572 329.607 271.556 329.863 271.524C330.119 271.484 330.399 271.432 330.703 271.368V272.988C330.383 273.068 330.055 273.128 329.719 273.168C329.383 273.208 329.043 273.228 328.699 273.228ZM322.051 261.564V259.98H330.511V261.564H322.051ZM339.047 273V259.98H340.967V273H339.047ZM340.007 257.148C339.575 257.148 339.243 257.044 339.011 256.836C338.787 256.62 338.675 256.324 338.675 255.948C338.675 255.564 338.787 255.264 339.011 255.048C339.243 254.832 339.575 254.724 340.007 254.724C340.439 254.724 340.767 254.832 340.991 255.048C341.223 255.264 341.339 255.564 341.339 255.948C341.339 256.324 341.223 256.62 340.991 256.836C340.767 257.044 340.439 257.148 340.007 257.148ZM344.841 273V259.98H346.461L346.593 261.444H346.725C347.253 260.908 347.869 260.496 348.573 260.208C349.277 259.92 350.025 259.776 350.817 259.776C351.633 259.776 352.353 259.928 352.977 260.232C353.609 260.528 354.101 261.016 354.453 261.696C354.813 262.368 354.993 263.268 354.993 264.396V273H353.085V264.48C353.085 263.36 352.837 262.584 352.341 262.152C351.853 261.712 351.189 261.492 350.349 261.492C349.965 261.492 349.557 261.548 349.125 261.66C348.693 261.772 348.269 261.956 347.853 262.212C347.445 262.468 347.081 262.808 346.761 263.232V273H344.841ZM358.722 273V259.98H360.642V273H358.722ZM359.682 257.148C359.25 257.148 358.918 257.044 358.686 256.836C358.462 256.62 358.35 256.324 358.35 255.948C358.35 255.564 358.462 255.264 358.686 255.048C358.918 254.832 359.25 254.724 359.682 254.724C360.114 254.724 360.442 254.832 360.666 255.048C360.898 255.264 361.014 255.564 361.014 255.948C361.014 256.324 360.898 256.62 360.666 256.836C360.442 257.044 360.114 257.148 359.682 257.148ZM369.485 273.228C368.157 273.228 367.125 272.888 366.389 272.208C365.653 271.52 365.285 270.424 365.285 268.92V259.98L365.597 255.24H367.205V268.608C367.205 269.704 367.429 270.472 367.877 270.912C368.333 271.352 369.009 271.572 369.905 271.572C370.145 271.572 370.393 271.556 370.649 271.524C370.905 271.484 371.185 271.432 371.489 271.368V272.988C371.169 273.068 370.841 273.128 370.505 273.168C370.169 273.208 369.829 273.228 369.485 273.228ZM362.837 261.564V259.98H371.297V261.564H362.837ZM373.78 273V259.98H375.7V273H373.78ZM374.74 257.148C374.308 257.148 373.976 257.044 373.744 256.836C373.52 256.62 373.408 256.324 373.408 255.948C373.408 255.564 373.52 255.264 373.744 255.048C373.976 254.832 374.308 254.724 374.74 254.724C375.172 254.724 375.5 254.832 375.724 255.048C375.956 255.264 376.072 255.564 376.072 255.948C376.072 256.324 375.956 256.62 375.724 256.836C375.5 257.044 375.172 257.148 374.74 257.148ZM382.803 273.216C381.579 273.216 380.615 272.9 379.911 272.268C379.215 271.636 378.867 270.768 378.867 269.664C378.867 268.528 379.239 267.644 379.983 267.012C380.735 266.372 381.939 265.972 383.595 265.812L387.087 265.44L387.267 266.712L383.715 267.096C382.683 267.2 381.939 267.452 381.483 267.852C381.035 268.244 380.811 268.788 380.811 269.484C380.811 270.212 381.019 270.768 381.435 271.152C381.851 271.536 382.471 271.728 383.295 271.728C383.863 271.728 384.435 271.608 385.011 271.368C385.587 271.12 386.103 270.708 386.559 270.132V264.384C386.559 263.584 386.435 262.968 386.187 262.536C385.939 262.096 385.567 261.788 385.071 261.612C384.575 261.436 383.951 261.348 383.199 261.348C382.711 261.348 382.155 261.392 381.531 261.48C380.915 261.568 380.299 261.716 379.683 261.924V260.352C380.243 260.168 380.859 260.028 381.531 259.932C382.211 259.828 382.851 259.776 383.451 259.776C384.555 259.776 385.475 259.92 386.211 260.208C386.955 260.496 387.511 260.984 387.879 261.672C388.255 262.352 388.443 263.284 388.443 264.468V273H386.835L386.691 271.548H386.571C386.147 272.084 385.603 272.496 384.939 272.784C384.283 273.072 383.571 273.216 382.803 273.216ZM392.166 273V253.608H394.086V273H392.166ZM408.92 273.228C407.8 273.228 406.824 272.996 405.992 272.532C405.16 272.06 404.516 271.332 404.06 270.348C403.604 269.356 403.376 268.072 403.376 266.496C403.376 264.936 403.6 263.66 404.048 262.668C404.504 261.676 405.148 260.948 405.98 260.484C406.812 260.012 407.792 259.776 408.92 259.776C410.048 259.776 411.028 260.012 411.86 260.484C412.692 260.948 413.332 261.676 413.78 262.668C414.236 263.652 414.464 264.928 414.464 266.496C414.464 268.056 414.232 269.332 413.768 270.324C413.312 271.316 412.668 272.048 411.836 272.52C411.012 272.992 410.04 273.228 408.92 273.228ZM408.92 271.668C409.656 271.668 410.292 271.508 410.828 271.188C411.364 270.868 411.776 270.336 412.064 269.592C412.36 268.84 412.508 267.82 412.508 266.532C412.508 265.22 412.36 264.188 412.064 263.436C411.776 262.676 411.36 262.14 410.816 261.828C410.28 261.508 409.648 261.348 408.92 261.348C408.184 261.348 407.548 261.508 407.012 261.828C406.476 262.14 406.06 262.672 405.764 263.424C405.476 264.168 405.332 265.184 405.332 266.472C405.332 267.776 405.476 268.808 405.764 269.568C406.06 270.32 406.476 270.86 407.012 271.188C407.548 271.508 408.184 271.668 408.92 271.668ZM418.172 273V258.012C418.172 257.004 418.348 256.156 418.7 255.468C419.06 254.772 419.592 254.248 420.296 253.896C421 253.544 421.868 253.368 422.9 253.368C423.196 253.368 423.492 253.38 423.788 253.404C424.092 253.428 424.388 253.464 424.676 253.512V255.12C424.404 255.072 424.136 255.04 423.872 255.024C423.616 255 423.356 254.988 423.092 254.988C422.076 254.988 421.32 255.212 420.824 255.66C420.328 256.108 420.08 256.864 420.08 257.928V273H418.172ZM415.724 261.564V259.98H424.172V261.564H415.724ZM426.428 273V258.012C426.428 257.004 426.604 256.156 426.956 255.468C427.316 254.772 427.848 254.248 428.552 253.896C429.256 253.544 430.124 253.368 431.156 253.368C431.452 253.368 431.748 253.38 432.044 253.404C432.348 253.428 432.644 253.464 432.932 253.512V255.12C432.66 255.072 432.392 255.04 432.128 255.024C431.872 255 431.612 254.988 431.348 254.988C430.332 254.988 429.576 255.212 429.08 255.66C428.584 256.108 428.336 256.864 428.336 257.928V273H426.428ZM423.98 261.564V259.98H432.428V261.564H423.98ZM439.702 273.228C438.35 273.228 437.214 273 436.294 272.544C435.382 272.08 434.694 271.356 434.23 270.372C433.766 269.38 433.534 268.084 433.534 266.484C433.534 264.956 433.746 263.696 434.17 262.704C434.602 261.712 435.21 260.976 435.994 260.496C436.786 260.016 437.722 259.776 438.802 259.776C439.866 259.776 440.77 260.02 441.514 260.508C442.266 260.988 442.838 261.728 443.23 262.728C443.622 263.72 443.818 264.988 443.818 266.532V267.12H434.578V265.812H442.402L441.982 266.1C441.982 264.884 441.854 263.916 441.598 263.196C441.35 262.476 440.986 261.96 440.506 261.648C440.034 261.328 439.458 261.168 438.778 261.168C438.106 261.168 437.522 261.324 437.026 261.636C436.53 261.948 436.146 262.464 435.874 263.184C435.61 263.904 435.478 264.876 435.478 266.1V266.772C435.478 267.972 435.638 268.932 435.958 269.652C436.286 270.364 436.778 270.88 437.434 271.2C438.09 271.512 438.922 271.668 439.93 271.668C440.426 271.668 440.938 271.624 441.466 271.536C442.002 271.44 442.57 271.308 443.17 271.14V272.712C442.546 272.888 441.95 273.016 441.382 273.096C440.822 273.184 440.262 273.228 439.702 273.228ZM446.809 273V259.98H448.417L448.573 261.72H448.693C449.141 261.104 449.701 260.64 450.373 260.328C451.053 260.008 451.761 259.848 452.497 259.848C452.697 259.848 452.877 259.856 453.037 259.872C453.205 259.888 453.369 259.912 453.529 259.944V261.72C453.345 261.688 453.161 261.668 452.977 261.66C452.801 261.652 452.609 261.648 452.401 261.648C451.977 261.648 451.533 261.716 451.069 261.852C450.613 261.98 450.181 262.184 449.773 262.464C449.365 262.736 449.017 263.08 448.729 263.496V273H446.809Z" fill="#E7E9F7"/>
<path d="M105.48 306V305.288L108.872 300.776C109.256 300.264 109.563 299.808 109.792 299.408C110.027 299.003 110.195 298.629 110.296 298.288C110.397 297.947 110.448 297.608 110.448 297.272C110.448 296.504 110.237 295.952 109.816 295.616C109.395 295.28 108.76 295.112 107.912 295.112C107.448 295.112 107 295.152 106.568 295.232C106.141 295.312 105.733 295.429 105.344 295.584V294.464C105.573 294.373 105.832 294.293 106.12 294.224C106.413 294.155 106.723 294.101 107.048 294.064C107.373 294.027 107.696 294.008 108.016 294.008C109.211 294.008 110.131 294.261 110.776 294.768C111.421 295.269 111.744 296.069 111.744 297.168C111.744 297.589 111.685 298.005 111.568 298.416C111.456 298.821 111.269 299.256 111.008 299.72C110.747 300.179 110.392 300.699 109.944 301.28L106.936 305.248L106.832 304.888H112.384V306H105.48ZM119.821 306L117.277 297.32H118.533L120.701 304.888H120.573L122.837 297.32H124.349L126.613 304.888H126.469L128.645 297.32H129.853L127.325 306H125.813L123.509 298.344H123.653L121.333 306H119.821ZM135.161 306.152C134.26 306.152 133.502 306 132.889 305.696C132.281 305.387 131.822 304.904 131.513 304.248C131.204 303.587 131.049 302.723 131.049 301.656C131.049 300.637 131.19 299.797 131.473 299.136C131.761 298.475 132.166 297.984 132.689 297.664C133.217 297.344 133.841 297.184 134.561 297.184C135.27 297.184 135.873 297.347 136.369 297.672C136.87 297.992 137.252 298.485 137.513 299.152C137.774 299.813 137.905 300.659 137.905 301.688V302.08H131.745V301.208H136.961L136.681 301.4C136.681 300.589 136.596 299.944 136.425 299.464C136.26 298.984 136.017 298.64 135.697 298.432C135.382 298.219 134.998 298.112 134.545 298.112C134.097 298.112 133.708 298.216 133.377 298.424C133.046 298.632 132.79 298.976 132.609 299.456C132.433 299.936 132.345 300.584 132.345 301.4V301.848C132.345 302.648 132.452 303.288 132.665 303.768C132.884 304.243 133.212 304.587 133.649 304.8C134.086 305.008 134.641 305.112 135.313 305.112C135.644 305.112 135.985 305.083 136.337 305.024C136.694 304.96 137.073 304.872 137.473 304.76V305.808C137.057 305.925 136.66 306.011 136.281 306.064C135.908 306.123 135.534 306.152 135.161 306.152ZM143.395 306.152C142.494 306.152 141.737 306 141.123 305.696C140.515 305.387 140.057 304.904 139.747 304.248C139.438 303.587 139.283 302.723 139.283 301.656C139.283 300.637 139.425 299.797 139.707 299.136C139.995 298.475 140.401 297.984 140.923 297.664C141.451 297.344 142.075 297.184 142.795 297.184C143.505 297.184 144.107 297.347 144.603 297.672C145.105 297.992 145.486 298.485 145.747 299.152C146.009 299.813 146.139 300.659 146.139 301.688V302.08H139.979V301.208H145.195L144.915 301.4C144.915 300.589 144.83 299.944 144.659 299.464C144.494 298.984 144.251 298.64 143.931 298.432C143.617 298.219 143.233 298.112 142.779 298.112C142.331 298.112 141.942 298.216 141.611 298.424C141.281 298.632 141.025 298.976 140.843 299.456C140.667 299.936 140.579 300.584 140.579 301.4V301.848C140.579 302.648 140.686 303.288 140.899 303.768C141.118 304.243 141.446 304.587 141.883 304.8C142.321 305.008 142.875 305.112 143.547 305.112C143.878 305.112 144.219 305.083 144.571 305.024C144.929 304.96 145.307 304.872 145.707 304.76V305.808C145.291 305.925 144.894 306.011 144.515 306.064C144.142 306.123 143.769 306.152 143.395 306.152ZM153.798 306L150.31 301.552L153.558 297.32H154.982L151.646 301.712V301.36L155.246 306H153.798ZM149.094 302.088V301.016H150.862V302.088H149.094ZM147.974 306V293.072H149.254V306H147.974ZM158.249 306.152C157.811 306.152 157.393 306.123 156.993 306.064C156.598 306.005 156.214 305.917 155.841 305.8V304.776C156.267 304.904 156.675 304.997 157.065 305.056C157.454 305.109 157.849 305.136 158.249 305.136C159.001 305.136 159.545 305.008 159.881 304.752C160.222 304.496 160.393 304.136 160.393 303.672C160.393 303.277 160.291 302.976 160.089 302.768C159.886 302.555 159.542 302.397 159.057 302.296L157.881 302.056C157.091 301.885 156.526 301.605 156.185 301.216C155.849 300.821 155.681 300.315 155.681 299.696C155.681 298.965 155.961 298.365 156.521 297.896C157.086 297.421 157.953 297.184 159.121 297.184C159.494 297.184 159.849 297.205 160.185 297.248C160.526 297.291 160.854 297.355 161.169 297.44V298.472C160.817 298.376 160.478 298.307 160.153 298.264C159.833 298.221 159.497 298.2 159.145 298.2C158.595 298.2 158.155 298.267 157.825 298.4C157.499 298.528 157.265 298.704 157.121 298.928C156.977 299.147 156.905 299.392 156.905 299.664C156.905 300.005 157.001 300.288 157.193 300.512C157.385 300.736 157.721 300.901 158.201 301.008L159.377 301.248C160.177 301.413 160.75 301.685 161.097 302.064C161.449 302.443 161.625 302.957 161.625 303.608C161.625 304.392 161.337 305.013 160.761 305.472C160.19 305.925 159.353 306.152 158.249 306.152Z" fill="#00E5FF"/>
<path d="M2.028 341V323.24H3.972V339.308H12.72V341H2.028ZM19.911 341.228C18.559 341.228 17.423 341 16.503 340.544C15.591 340.08 14.903 339.356 14.439 338.372C13.975 337.38 13.743 336.084 13.743 334.484C13.743 332.956 13.955 331.696 14.379 330.704C14.811 329.712 15.419 328.976 16.203 328.496C16.995 328.016 17.931 327.776 19.011 327.776C20.075 327.776 20.979 328.02 21.723 328.508C22.475 328.988 23.047 329.728 23.439 330.728C23.831 331.72 24.027 332.988 24.027 334.532V335.12H14.787V333.812H22.611L22.191 334.1C22.191 332.884 22.063 331.916 21.807 331.196C21.559 330.476 21.195 329.96 20.715 329.648C20.243 329.328 19.667 329.168 18.987 329.168C18.315 329.168 17.731 329.324 17.235 329.636C16.739 329.948 16.355 330.464 16.083 331.184C15.819 331.904 15.687 332.876 15.687 334.1V334.772C15.687 335.972 15.847 336.932 16.167 337.652C16.495 338.364 16.987 338.88 17.643 339.2C18.299 339.512 19.131 339.668 20.139 339.668C20.635 339.668 21.147 339.624 21.675 339.536C22.211 339.44 22.779 339.308 23.379 339.14V340.712C22.755 340.888 22.159 341.016 21.591 341.096C21.031 341.184 20.471 341.228 19.911 341.228ZM31.9162 341.228C30.5882 341.228 29.5562 340.888 28.8202 340.208C28.0842 339.52 27.7162 338.424 27.7162 336.92V327.98L28.0282 323.24H29.6362V336.608C29.6362 337.704 29.8602 338.472 30.3082 338.912C30.7642 339.352 31.4402 339.572 32.3362 339.572C32.5763 339.572 32.8243 339.556 33.0803 339.524C33.3362 339.484 33.6162 339.432 33.9203 339.368V340.988C33.6003 341.068 33.2722 341.128 32.9362 341.168C32.6003 341.208 32.2602 341.228 31.9162 341.228ZM25.2682 329.564V327.98H33.7282V329.564H25.2682ZM40.4531 341.228C39.1251 341.228 38.0931 340.888 37.3571 340.208C36.6211 339.52 36.2531 338.424 36.2531 336.92V327.98L36.5651 323.24H38.1731V336.608C38.1731 337.704 38.3971 338.472 38.8451 338.912C39.3011 339.352 39.9771 339.572 40.8731 339.572C41.1131 339.572 41.3611 339.556 41.6171 339.524C41.8731 339.484 42.1531 339.432 42.4571 339.368V340.988C42.1371 341.068 41.8091 341.128 41.4731 341.168C41.1371 341.208 40.7971 341.228 40.4531 341.228ZM33.8051 329.564V327.98H42.2651V329.564H33.8051ZM50.0451 341.228C48.6931 341.228 47.5571 341 46.6371 340.544C45.7251 340.08 45.0371 339.356 44.5731 338.372C44.1091 337.38 43.8771 336.084 43.8771 334.484C43.8771 332.956 44.0891 331.696 44.5131 330.704C44.9451 329.712 45.5531 328.976 46.3371 328.496C47.1291 328.016 48.0651 327.776 49.1451 327.776C50.2091 327.776 51.1131 328.02 51.8571 328.508C52.6091 328.988 53.1811 329.728 53.5731 330.728C53.9651 331.72 54.1611 332.988 54.1611 334.532V335.12H44.9211V333.812H52.7451L52.3251 334.1C52.3251 332.884 52.1971 331.916 51.9411 331.196C51.6931 330.476 51.3291 329.96 50.8491 329.648C50.3771 329.328 49.8011 329.168 49.1211 329.168C48.4491 329.168 47.8651 329.324 47.3691 329.636C46.8731 329.948 46.4891 330.464 46.2171 331.184C45.9531 331.904 45.8211 332.876 45.8211 334.1V334.772C45.8211 335.972 45.9811 336.932 46.3011 337.652C46.6291 338.364 47.1211 338.88 47.7771 339.2C48.4331 339.512 49.2651 339.668 50.2731 339.668C50.7691 339.668 51.2811 339.624 51.8091 339.536C52.3451 339.44 52.9131 339.308 53.5131 339.14V340.712C52.8891 340.888 52.2931 341.016 51.7251 341.096C51.1651 341.184 50.6051 341.228 50.0451 341.228ZM57.1526 341V327.98H58.7606L58.9166 329.72H59.0366C59.4846 329.104 60.0446 328.64 60.7166 328.328C61.3966 328.008 62.1046 327.848 62.8406 327.848C63.0406 327.848 63.2206 327.856 63.3806 327.872C63.5486 327.888 63.7126 327.912 63.8726 327.944V329.72C63.6886 329.688 63.5046 329.668 63.3206 329.66C63.1446 329.652 62.9526 329.648 62.7446 329.648C62.3206 329.648 61.8766 329.716 61.4126 329.852C60.9566 329.98 60.5246 330.184 60.1166 330.464C59.7086 330.736 59.3606 331.08 59.0726 331.496V341H57.1526ZM77.0239 341.228C75.9039 341.228 74.9279 340.996 74.0959 340.532C73.2639 340.06 72.6199 339.332 72.1639 338.348C71.7079 337.356 71.4799 336.072 71.4799 334.496C71.4799 332.936 71.7039 331.66 72.1519 330.668C72.6079 329.676 73.2519 328.948 74.0839 328.484C74.9159 328.012 75.8959 327.776 77.0239 327.776C78.1519 327.776 79.1319 328.012 79.9639 328.484C80.7959 328.948 81.4359 329.676 81.8839 330.668C82.3399 331.652 82.5679 332.928 82.5679 334.496C82.5679 336.056 82.3359 337.332 81.8719 338.324C81.4159 339.316 80.7719 340.048 79.9399 340.52C79.1159 340.992 78.1439 341.228 77.0239 341.228ZM77.0239 339.668C77.7599 339.668 78.3959 339.508 78.9319 339.188C79.4679 338.868 79.8799 338.336 80.1679 337.592C80.4639 336.84 80.6119 335.82 80.6119 334.532C80.6119 333.22 80.4639 332.188 80.1679 331.436C79.8799 330.676 79.4639 330.14 78.9199 329.828C78.3839 329.508 77.7519 329.348 77.0239 329.348C76.2879 329.348 75.6519 329.508 75.1159 329.828C74.5799 330.14 74.1639 330.672 73.8679 331.424C73.5799 332.168 73.4359 333.184 73.4359 334.472C73.4359 335.776 73.5799 336.808 73.8679 337.568C74.1639 338.32 74.5799 338.86 75.1159 339.188C75.6519 339.508 76.2879 339.668 77.0239 339.668ZM86.2757 341V326.012C86.2757 325.004 86.4517 324.156 86.8037 323.468C87.1637 322.772 87.6957 322.248 88.3997 321.896C89.1037 321.544 89.9717 321.368 91.0037 321.368C91.2997 321.368 91.5957 321.38 91.8917 321.404C92.1957 321.428 92.4917 321.464 92.7797 321.512V323.12C92.5077 323.072 92.2397 323.04 91.9757 323.024C91.7197 323 91.4597 322.988 91.1957 322.988C90.1797 322.988 89.4237 323.212 88.9277 323.66C88.4317 324.108 88.1837 324.864 88.1837 325.928V341H86.2757ZM83.8277 329.564V327.98H92.2757V329.564H83.8277ZM100.353 341V327.98H102.273V341H100.353ZM101.313 325.148C100.881 325.148 100.549 325.044 100.317 324.836C100.093 324.62 99.9806 324.324 99.9806 323.948C99.9806 323.564 100.093 323.264 100.317 323.048C100.549 322.832 100.881 322.724 101.313 322.724C101.745 322.724 102.073 322.832 102.297 323.048C102.529 323.264 102.645 323.564 102.645 323.948C102.645 324.324 102.529 324.62 102.297 324.836C102.073 325.044 101.745 325.148 101.313 325.148ZM106.147 341V327.98H107.767L107.899 329.444H108.031C108.559 328.908 109.175 328.496 109.879 328.208C110.583 327.92 111.331 327.776 112.123 327.776C112.939 327.776 113.659 327.928 114.283 328.232C114.915 328.528 115.407 329.016 115.759 329.696C116.119 330.368 116.299 331.268 116.299 332.396V341H114.391V332.48C114.391 331.36 114.143 330.584 113.647 330.152C113.159 329.712 112.495 329.492 111.655 329.492C111.271 329.492 110.863 329.548 110.431 329.66C109.999 329.772 109.575 329.956 109.159 330.212C108.751 330.468 108.387 330.808 108.067 331.232V341H106.147ZM124.996 341.228C123.668 341.228 122.636 340.888 121.9 340.208C121.164 339.52 120.796 338.424 120.796 336.92V327.98L121.108 323.24H122.716V336.608C122.716 337.704 122.94 338.472 123.388 338.912C123.844 339.352 124.52 339.572 125.416 339.572C125.656 339.572 125.904 339.556 126.16 339.524C126.416 339.484 126.696 339.432 127 339.368V340.988C126.68 341.068 126.352 341.128 126.016 341.168C125.68 341.208 125.34 341.228 124.996 341.228ZM118.348 329.564V327.98H126.808V329.564H118.348ZM134.588 341.228C133.236 341.228 132.1 341 131.18 340.544C130.268 340.08 129.58 339.356 129.116 338.372C128.652 337.38 128.42 336.084 128.42 334.484C128.42 332.956 128.632 331.696 129.056 330.704C129.488 329.712 130.096 328.976 130.88 328.496C131.672 328.016 132.608 327.776 133.688 327.776C134.752 327.776 135.656 328.02 136.4 328.508C137.152 328.988 137.724 329.728 138.116 330.728C138.508 331.72 138.704 332.988 138.704 334.532V335.12H129.464V333.812H137.288L136.868 334.1C136.868 332.884 136.74 331.916 136.484 331.196C136.236 330.476 135.872 329.96 135.392 329.648C134.92 329.328 134.344 329.168 133.664 329.168C132.992 329.168 132.408 329.324 131.912 329.636C131.416 329.948 131.032 330.464 130.76 331.184C130.496 331.904 130.364 332.876 130.364 334.1V334.772C130.364 335.972 130.524 336.932 130.844 337.652C131.172 338.364 131.664 338.88 132.32 339.2C132.976 339.512 133.808 339.668 134.816 339.668C135.312 339.668 135.824 339.624 136.352 339.536C136.888 339.44 137.456 339.308 138.056 339.14V340.712C137.432 340.888 136.836 341.016 136.268 341.096C135.708 341.184 135.148 341.228 134.588 341.228ZM141.695 341V327.98H143.315L143.447 329.444H143.579C144.107 328.908 144.723 328.496 145.427 328.208C146.131 327.92 146.879 327.776 147.671 327.776C148.487 327.776 149.207 327.928 149.831 328.232C150.463 328.528 150.955 329.016 151.307 329.696C151.667 330.368 151.847 331.268 151.847 332.396V341H149.939V332.48C149.939 331.36 149.691 330.584 149.195 330.152C148.707 329.712 148.043 329.492 147.203 329.492C146.819 329.492 146.411 329.548 145.979 329.66C145.547 329.772 145.123 329.956 144.707 330.212C144.299 330.468 143.935 330.808 143.615 331.232V341H141.695ZM160.544 341.228C159.216 341.228 158.184 340.888 157.448 340.208C156.712 339.52 156.344 338.424 156.344 336.92V327.98L156.656 323.24H158.264V336.608C158.264 337.704 158.488 338.472 158.936 338.912C159.392 339.352 160.068 339.572 160.964 339.572C161.204 339.572 161.452 339.556 161.708 339.524C161.964 339.484 162.244 339.432 162.548 339.368V340.988C162.228 341.068 161.9 341.128 161.564 341.168C161.228 341.208 160.888 341.228 160.544 341.228ZM153.896 329.564V327.98H162.356V329.564H153.896Z" fill="#E7E9F7"/>
<path d="M260.128 449.152C259.515 449.152 258.955 449.051 258.448 448.848C257.947 448.64 257.512 448.312 257.144 447.864C256.781 447.416 256.501 446.829 256.304 446.104C256.107 445.379 256.008 444.499 256.008 443.464C256.008 441.976 256.2 440.757 256.584 439.808C256.973 438.853 257.541 438.149 258.288 437.696C259.035 437.237 259.944 437.008 261.016 437.008C261.4 437.008 261.776 437.035 262.144 437.088C262.517 437.141 262.861 437.232 263.176 437.36V438.432C262.856 438.309 262.512 438.219 262.144 438.16C261.776 438.101 261.416 438.072 261.064 438.072C260.232 438.072 259.536 438.248 258.976 438.6C258.416 438.947 257.995 439.493 257.712 440.24C257.429 440.987 257.288 441.957 257.288 443.152V443.608C257.288 444.472 257.355 445.195 257.488 445.776C257.621 446.357 257.813 446.821 258.064 447.168C258.315 447.509 258.616 447.755 258.968 447.904C259.32 448.053 259.709 448.128 260.136 448.128C260.589 448.128 260.995 448.043 261.352 447.872C261.709 447.701 261.989 447.437 262.192 447.08C262.4 446.717 262.504 446.253 262.504 445.688C262.504 445.112 262.395 444.643 262.176 444.28C261.963 443.912 261.656 443.643 261.256 443.472C260.861 443.301 260.397 443.216 259.864 443.216C259.539 443.216 259.2 443.256 258.848 443.336C258.501 443.416 258.168 443.544 257.848 443.72C257.528 443.891 257.253 444.117 257.024 444.4V443.312C257.36 442.96 257.803 442.685 258.352 442.488C258.907 442.291 259.48 442.192 260.072 442.192C260.787 442.192 261.419 442.317 261.968 442.568C262.517 442.819 262.947 443.2 263.256 443.712C263.571 444.219 263.728 444.864 263.728 445.648C263.728 446.411 263.573 447.053 263.264 447.576C262.96 448.099 262.536 448.493 261.992 448.76C261.453 449.021 260.832 449.152 260.128 449.152ZM269.195 449.152C268.368 449.152 267.648 448.952 267.035 448.552C266.427 448.152 265.955 447.507 265.619 446.616C265.288 445.725 265.123 444.547 265.123 443.08C265.123 441.613 265.288 440.435 265.619 439.544C265.95 438.653 266.419 438.008 267.027 437.608C267.635 437.208 268.358 437.008 269.195 437.008C270.038 437.008 270.763 437.208 271.371 437.608C271.979 438.008 272.448 438.653 272.779 439.544C273.11 440.435 273.275 441.613 273.275 443.08C273.275 444.547 273.107 445.725 272.771 446.616C272.44 447.507 271.968 448.152 271.355 448.552C270.747 448.952 270.027 449.152 269.195 449.152ZM269.203 448.032C269.763 448.032 270.251 447.885 270.667 447.592C271.083 447.299 271.403 446.795 271.627 446.08C271.856 445.36 271.971 444.368 271.971 443.104C271.971 441.824 271.856 440.824 271.627 440.104C271.403 439.379 271.083 438.869 270.667 438.576C270.251 438.277 269.763 438.128 269.203 438.128C268.638 438.128 268.147 438.275 267.731 438.568C267.315 438.861 266.992 439.368 266.763 440.088C266.539 440.803 266.427 441.792 266.427 443.056C266.427 444.336 266.539 445.339 266.763 446.064C266.992 446.784 267.315 447.293 267.731 447.592C268.147 447.885 268.638 448.032 269.203 448.032ZM282.262 449.152C281.632 449.152 281.059 449.011 280.542 448.728C280.024 448.44 279.611 447.981 279.302 447.352C278.998 446.723 278.846 445.885 278.846 444.84C278.846 443.795 279.011 442.928 279.342 442.24C279.678 441.552 280.171 441.037 280.822 440.696C281.472 440.355 282.272 440.184 283.222 440.184C283.467 440.184 283.712 440.195 283.958 440.216C284.203 440.237 284.43 440.264 284.638 440.296V436.072H285.918V449H284.83L284.742 448.064H284.654C284.398 448.379 284.064 448.64 283.654 448.848C283.248 449.051 282.784 449.152 282.262 449.152ZM282.55 448.048C282.939 448.048 283.32 447.963 283.694 447.792C284.067 447.621 284.382 447.349 284.638 446.976V441.384C284.446 441.336 284.222 441.299 283.966 441.272C283.71 441.245 283.456 441.232 283.206 441.232C282.198 441.232 281.435 441.504 280.918 442.048C280.406 442.592 280.15 443.485 280.15 444.728C280.15 445.581 280.251 446.251 280.454 446.736C280.662 447.216 280.944 447.555 281.302 447.752C281.664 447.949 282.08 448.048 282.55 448.048ZM290.485 449.144C289.669 449.144 289.026 448.933 288.557 448.512C288.093 448.091 287.861 447.512 287.861 446.776C287.861 446.019 288.109 445.429 288.605 445.008C289.106 444.581 289.909 444.315 291.013 444.208L293.341 443.96L293.461 444.808L291.093 445.064C290.405 445.133 289.909 445.301 289.605 445.568C289.306 445.829 289.157 446.192 289.157 446.656C289.157 447.141 289.296 447.512 289.573 447.768C289.85 448.024 290.264 448.152 290.813 448.152C291.192 448.152 291.573 448.072 291.957 447.912C292.341 447.747 292.685 447.472 292.989 447.088V443.256C292.989 442.723 292.906 442.312 292.741 442.024C292.576 441.731 292.328 441.525 291.997 441.408C291.666 441.291 291.25 441.232 290.749 441.232C290.424 441.232 290.053 441.261 289.637 441.32C289.226 441.379 288.816 441.477 288.405 441.616V440.568C288.778 440.445 289.189 440.352 289.637 440.288C290.09 440.219 290.517 440.184 290.917 440.184C291.653 440.184 292.266 440.28 292.757 440.472C293.253 440.664 293.624 440.989 293.869 441.448C294.12 441.901 294.245 442.523 294.245 443.312V449H293.173L293.077 448.032H292.997C292.714 448.389 292.352 448.664 291.909 448.856C291.472 449.048 290.997 449.144 290.485 449.144ZM297.799 452.52L299.135 449L299.543 448.08L302.407 440.32H303.695L299.079 452.52H297.799ZM298.767 449L295.479 440.32H296.847L299.991 449H298.767ZM306.983 449.152C306.546 449.152 306.127 449.123 305.727 449.064C305.332 449.005 304.948 448.917 304.575 448.8V447.776C305.002 447.904 305.41 447.997 305.799 448.056C306.188 448.109 306.583 448.136 306.983 448.136C307.735 448.136 308.279 448.008 308.615 447.752C308.956 447.496 309.127 447.136 309.127 446.672C309.127 446.277 309.026 445.976 308.823 445.768C308.62 445.555 308.276 445.397 307.791 445.296L306.615 445.056C305.826 444.885 305.26 444.605 304.919 444.216C304.583 443.821 304.415 443.315 304.415 442.696C304.415 441.965 304.695 441.365 305.255 440.896C305.82 440.421 306.687 440.184 307.855 440.184C308.228 440.184 308.583 440.205 308.919 440.248C309.26 440.291 309.588 440.355 309.903 440.44V441.472C309.551 441.376 309.212 441.307 308.887 441.264C308.567 441.221 308.231 441.2 307.879 441.2C307.33 441.2 306.89 441.267 306.559 441.4C306.234 441.528 305.999 441.704 305.855 441.928C305.711 442.147 305.639 442.392 305.639 442.664C305.639 443.005 305.735 443.288 305.927 443.512C306.119 443.736 306.455 443.901 306.935 444.008L308.111 444.248C308.911 444.413 309.484 444.685 309.831 445.064C310.183 445.443 310.359 445.957 310.359 446.608C310.359 447.392 310.071 448.013 309.495 448.472C308.924 448.925 308.087 449.152 306.983 449.152Z" fill="#00E5FF"/>
<path d="M261.228 484.144C260.78 484.144 260.336 484.132 259.896 484.108C259.456 484.092 259 484.064 258.528 484.024C258.056 483.992 257.556 483.948 257.028 483.892V466.528C257.508 466.432 258.008 466.348 258.528 466.276C259.056 466.204 259.584 466.152 260.112 466.12C260.648 466.08 261.168 466.06 261.672 466.06C264.6 466.06 266.808 466.8 268.296 468.28C269.792 469.76 270.54 472.04 270.54 475.12C270.54 477.208 270.192 478.916 269.496 480.244C268.8 481.572 267.76 482.556 266.376 483.196C265 483.828 263.284 484.144 261.228 484.144ZM261.612 482.476C263.156 482.476 264.44 482.228 265.464 481.732C266.488 481.228 267.252 480.436 267.756 479.356C268.268 478.268 268.524 476.852 268.524 475.108C268.524 473.388 268.272 471.984 267.768 470.896C267.272 469.808 266.52 469.008 265.512 468.496C264.512 467.976 263.252 467.716 261.732 467.716C261.3 467.716 260.852 467.736 260.388 467.776C259.924 467.816 259.452 467.876 258.972 467.956V482.332C259.388 482.38 259.804 482.416 260.22 482.44C260.644 482.464 261.108 482.476 261.612 482.476ZM277.877 484.216C277.069 484.216 276.353 484.068 275.729 483.772C275.105 483.476 274.613 482.992 274.253 482.32C273.893 481.648 273.713 480.748 273.713 479.62V470.98H275.633V479.536C275.633 480.648 275.881 481.424 276.377 481.864C276.873 482.296 277.513 482.512 278.297 482.512C278.689 482.512 279.097 482.452 279.521 482.332C279.953 482.212 280.369 482.024 280.769 481.768C281.169 481.512 281.525 481.18 281.837 480.772V470.98H283.757V484H282.137L282.005 482.572H281.885C281.341 483.116 280.725 483.528 280.037 483.808C279.349 484.08 278.629 484.216 277.877 484.216ZM293.104 484.228C291.752 484.228 290.616 484 289.696 483.544C288.784 483.08 288.096 482.356 287.632 481.372C287.168 480.38 286.936 479.084 286.936 477.484C286.936 475.956 287.148 474.696 287.572 473.704C288.004 472.712 288.612 471.976 289.396 471.496C290.188 471.016 291.124 470.776 292.204 470.776C293.268 470.776 294.172 471.02 294.916 471.508C295.668 471.988 296.24 472.728 296.632 473.728C297.024 474.72 297.22 475.988 297.22 477.532V478.12H287.98V476.812H295.804L295.384 477.1C295.384 475.884 295.256 474.916 295 474.196C294.752 473.476 294.388 472.96 293.908 472.648C293.436 472.328 292.86 472.168 292.18 472.168C291.508 472.168 290.924 472.324 290.428 472.636C289.932 472.948 289.548 473.464 289.276 474.184C289.012 474.904 288.88 475.876 288.88 477.1V477.772C288.88 478.972 289.04 479.932 289.36 480.652C289.688 481.364 290.18 481.88 290.836 482.2C291.492 482.512 292.324 482.668 293.332 482.668C293.828 482.668 294.34 482.624 294.868 482.536C295.404 482.44 295.972 482.308 296.572 482.14V483.712C295.948 483.888 295.352 484.016 294.784 484.096C294.224 484.184 293.664 484.228 293.104 484.228ZM310.751 484.228C309.807 484.228 308.947 484.016 308.171 483.592C307.395 483.16 306.775 482.472 306.311 481.528C305.855 480.584 305.627 479.328 305.627 477.76C305.627 476.192 305.875 474.892 306.371 473.86C306.875 472.828 307.615 472.056 308.591 471.544C309.567 471.032 310.767 470.776 312.191 470.776C312.559 470.776 312.927 470.792 313.295 470.824C313.663 470.856 314.003 470.896 314.315 470.944V464.608H316.235V484H314.603L314.471 482.596H314.339C313.955 483.068 313.455 483.46 312.839 483.772C312.231 484.076 311.535 484.228 310.751 484.228ZM311.183 482.572C311.767 482.572 312.339 482.444 312.899 482.188C313.459 481.932 313.931 481.524 314.315 480.964V472.576C314.027 472.504 313.691 472.448 313.307 472.408C312.923 472.368 312.543 472.348 312.167 472.348C310.655 472.348 309.511 472.756 308.735 473.572C307.967 474.388 307.583 475.728 307.583 477.592C307.583 478.872 307.735 479.876 308.039 480.604C308.351 481.324 308.775 481.832 309.311 482.128C309.855 482.424 310.479 482.572 311.183 482.572ZM320.098 484V470.98H322.018V484H320.098ZM321.058 468.148C320.626 468.148 320.294 468.044 320.062 467.836C319.838 467.62 319.726 467.324 319.726 466.948C319.726 466.564 319.838 466.264 320.062 466.048C320.294 465.832 320.626 465.724 321.058 465.724C321.49 465.724 321.818 465.832 322.042 466.048C322.274 466.264 322.39 466.564 322.39 466.948C322.39 467.324 322.274 467.62 322.042 467.836C321.818 468.044 321.49 468.148 321.058 468.148ZM325.893 484V464.608H327.813V484H325.893ZM331.687 484V464.608H333.607V484H331.687ZM337.482 484V470.98H339.402V484H337.482ZM338.442 468.148C338.01 468.148 337.678 468.044 337.446 467.836C337.222 467.62 337.11 467.324 337.11 466.948C337.11 466.564 337.222 466.264 337.446 466.048C337.678 465.832 338.01 465.724 338.442 465.724C338.874 465.724 339.202 465.832 339.426 466.048C339.658 466.264 339.774 466.564 339.774 466.948C339.774 467.324 339.658 467.62 339.426 467.836C339.202 468.044 338.874 468.148 338.442 468.148ZM347.261 489.52C346.661 489.52 346.017 489.468 345.329 489.364C344.649 489.268 344.013 489.124 343.421 488.932V487.324C344.101 487.532 344.749 487.684 345.365 487.78C345.989 487.884 346.585 487.936 347.153 487.936C348.561 487.936 349.601 487.632 350.273 487.024C350.945 486.424 351.281 485.38 351.281 483.892V482.62H351.173C350.781 483.076 350.277 483.448 349.661 483.736C349.053 484.024 348.357 484.168 347.573 484.168C346.669 484.168 345.841 483.96 345.089 483.544C344.337 483.12 343.733 482.44 343.277 481.504C342.821 480.56 342.593 479.308 342.593 477.748C342.593 475.412 343.149 473.668 344.261 472.516C345.381 471.356 347.025 470.776 349.193 470.776C349.641 470.776 350.097 470.8 350.561 470.848C351.033 470.896 351.493 470.964 351.941 471.052C352.389 471.14 352.809 471.244 353.201 471.364V483.604C353.201 485.716 352.705 487.228 351.713 488.14C350.721 489.06 349.237 489.52 347.261 489.52ZM348.137 482.524C348.721 482.524 349.293 482.4 349.853 482.152C350.421 481.904 350.897 481.524 351.281 481.012V472.612C350.993 472.54 350.653 472.48 350.261 472.432C349.869 472.376 349.461 472.348 349.037 472.348C347.581 472.348 346.469 472.756 345.701 473.572C344.933 474.38 344.549 475.712 344.549 477.568C344.549 478.856 344.705 479.86 345.017 480.58C345.329 481.3 345.753 481.804 346.289 482.092C346.833 482.38 347.449 482.524 348.137 482.524ZM362.548 484.228C361.196 484.228 360.06 484 359.14 483.544C358.228 483.08 357.54 482.356 357.076 481.372C356.612 480.38 356.38 479.084 356.38 477.484C356.38 475.956 356.592 474.696 357.016 473.704C357.448 472.712 358.056 471.976 358.84 471.496C359.632 471.016 360.568 470.776 361.648 470.776C362.712 470.776 363.616 471.02 364.36 471.508C365.112 471.988 365.684 472.728 366.076 473.728C366.468 474.72 366.664 475.988 366.664 477.532V478.12H357.424V476.812H365.248L364.828 477.1C364.828 475.884 364.7 474.916 364.444 474.196C364.196 473.476 363.832 472.96 363.352 472.648C362.88 472.328 362.304 472.168 361.624 472.168C360.952 472.168 360.368 472.324 359.872 472.636C359.376 472.948 358.992 473.464 358.72 474.184C358.456 474.904 358.324 475.876 358.324 477.1V477.772C358.324 478.972 358.484 479.932 358.804 480.652C359.132 481.364 359.624 481.88 360.28 482.2C360.936 482.512 361.768 482.668 362.776 482.668C363.272 482.668 363.784 482.624 364.312 482.536C364.848 482.44 365.416 482.308 366.016 482.14V483.712C365.392 483.888 364.796 484.016 364.228 484.096C363.668 484.184 363.108 484.228 362.548 484.228ZM369.655 484V470.98H371.275L371.407 472.444H371.539C372.067 471.908 372.683 471.496 373.387 471.208C374.091 470.92 374.839 470.776 375.631 470.776C376.447 470.776 377.167 470.928 377.791 471.232C378.423 471.528 378.915 472.016 379.267 472.696C379.627 473.368 379.807 474.268 379.807 475.396V484H377.899V475.48C377.899 474.36 377.651 473.584 377.155 473.152C376.667 472.712 376.003 472.492 375.163 472.492C374.779 472.492 374.371 472.548 373.939 472.66C373.507 472.772 373.083 472.956 372.667 473.212C372.259 473.468 371.895 473.808 371.575 474.232V484H369.655ZM388.612 484.228C387.38 484.228 386.336 483.996 385.48 483.532C384.624 483.06 383.972 482.332 383.524 481.348C383.076 480.356 382.852 479.072 382.852 477.496C382.852 475.92 383.092 474.64 383.572 473.656C384.06 472.664 384.768 471.936 385.696 471.472C386.624 471.008 387.76 470.776 389.104 470.776C389.56 470.776 390.016 470.804 390.472 470.86C390.928 470.916 391.364 471 391.78 471.112V472.744C391.356 472.632 390.936 472.548 390.52 472.492C390.112 472.436 389.708 472.408 389.308 472.408C388.308 472.408 387.476 472.572 386.812 472.9C386.148 473.228 385.652 473.76 385.324 474.496C385.004 475.232 384.844 476.216 384.844 477.448C384.844 478.712 384.996 479.72 385.3 480.472C385.604 481.224 386.056 481.768 386.656 482.104C387.264 482.432 388.008 482.596 388.888 482.596C389.312 482.596 389.756 482.556 390.22 482.476C390.684 482.388 391.204 482.252 391.78 482.068V483.688C391.268 483.872 390.744 484.008 390.208 484.096C389.68 484.184 389.148 484.228 388.612 484.228ZM399.643 484.228C398.291 484.228 397.155 484 396.235 483.544C395.323 483.08 394.635 482.356 394.171 481.372C393.707 480.38 393.475 479.084 393.475 477.484C393.475 475.956 393.687 474.696 394.111 473.704C394.543 472.712 395.151 471.976 395.935 471.496C396.727 471.016 397.663 470.776 398.743 470.776C399.807 470.776 400.711 471.02 401.455 471.508C402.207 471.988 402.779 472.728 403.171 473.728C403.563 474.72 403.759 475.988 403.759 477.532V478.12H394.519V476.812H402.343L401.923 477.1C401.923 475.884 401.795 474.916 401.539 474.196C401.291 473.476 400.927 472.96 400.447 472.648C399.975 472.328 399.399 472.168 398.719 472.168C398.047 472.168 397.463 472.324 396.967 472.636C396.471 472.948 396.087 473.464 395.815 474.184C395.551 474.904 395.419 475.876 395.419 477.1V477.772C395.419 478.972 395.579 479.932 395.899 480.652C396.227 481.364 396.719 481.88 397.375 482.2C398.031 482.512 398.863 482.668 399.871 482.668C400.367 482.668 400.879 482.624 401.407 482.536C401.943 482.44 402.511 482.308 403.111 482.14V483.712C402.487 483.888 401.891 484.016 401.323 484.096C400.763 484.184 400.203 484.228 399.643 484.228Z" fill="#E7E9F7"/>
<path d="M54.228 608.144C53.78 608.144 53.336 608.132 52.896 608.108C52.456 608.092 52 608.064 51.528 608.024C51.056 607.992 50.556 607.948 50.028 607.892V590.528C50.508 590.432 51.008 590.348 51.528 590.276C52.056 590.204 52.584 590.152 53.112 590.12C53.648 590.08 54.168 590.06 54.672 590.06C57.6 590.06 59.808 590.8 61.296 592.28C62.792 593.76 63.54 596.04 63.54 599.12C63.54 601.208 63.192 602.916 62.496 604.244C61.8 605.572 60.76 606.556 59.376 607.196C58 607.828 56.284 608.144 54.228 608.144ZM54.612 606.476C56.156 606.476 57.44 606.228 58.464 605.732C59.488 605.228 60.252 604.436 60.756 603.356C61.268 602.268 61.524 600.852 61.524 599.108C61.524 597.388 61.272 595.984 60.768 594.896C60.272 593.808 59.52 593.008 58.512 592.496C57.512 591.976 56.252 591.716 54.732 591.716C54.3 591.716 53.852 591.736 53.388 591.776C52.924 591.816 52.452 591.876 51.972 591.956V606.332C52.388 606.38 52.804 606.416 53.22 606.44C53.644 606.464 54.108 606.476 54.612 606.476ZM72.3407 608.228C70.9887 608.228 69.8527 608 68.9327 607.544C68.0207 607.08 67.3327 606.356 66.8687 605.372C66.4047 604.38 66.1727 603.084 66.1727 601.484C66.1727 599.956 66.3847 598.696 66.8087 597.704C67.2407 596.712 67.8487 595.976 68.6327 595.496C69.4247 595.016 70.3607 594.776 71.4407 594.776C72.5047 594.776 73.4087 595.02 74.1527 595.508C74.9047 595.988 75.4767 596.728 75.8687 597.728C76.2607 598.72 76.4567 599.988 76.4567 601.532V602.12H67.2167V600.812H75.0407L74.6207 601.1C74.6207 599.884 74.4927 598.916 74.2367 598.196C73.9887 597.476 73.6247 596.96 73.1447 596.648C72.6727 596.328 72.0967 596.168 71.4167 596.168C70.7447 596.168 70.1607 596.324 69.6647 596.636C69.1687 596.948 68.7847 597.464 68.5127 598.184C68.2487 598.904 68.1167 599.876 68.1167 601.1V601.772C68.1167 602.972 68.2767 603.932 68.5967 604.652C68.9247 605.364 69.4167 605.88 70.0727 606.2C70.7287 606.512 71.5607 606.668 72.5687 606.668C73.0647 606.668 73.5767 606.624 74.1047 606.536C74.6407 606.44 75.2087 606.308 75.8087 606.14V607.712C75.1847 607.888 74.5887 608.016 74.0207 608.096C73.4607 608.184 72.9007 608.228 72.3407 608.228ZM82.5825 608.216C81.3585 608.216 80.3945 607.9 79.6905 607.268C78.9945 606.636 78.6465 605.768 78.6465 604.664C78.6465 603.528 79.0185 602.644 79.7625 602.012C80.5145 601.372 81.7185 600.972 83.3745 600.812L86.8665 600.44L87.0465 601.712L83.4945 602.096C82.4625 602.2 81.7185 602.452 81.2625 602.852C80.8145 603.244 80.5905 603.788 80.5905 604.484C80.5905 605.212 80.7985 605.768 81.2145 606.152C81.6305 606.536 82.2505 606.728 83.0745 606.728C83.6425 606.728 84.2145 606.608 84.7905 606.368C85.3665 606.12 85.8825 605.708 86.3385 605.132V599.384C86.3385 598.584 86.2145 597.968 85.9665 597.536C85.7185 597.096 85.3465 596.788 84.8505 596.612C84.3545 596.436 83.7305 596.348 82.9785 596.348C82.4905 596.348 81.9345 596.392 81.3105 596.48C80.6945 596.568 80.0785 596.716 79.4625 596.924V595.352C80.0225 595.168 80.6385 595.028 81.3105 594.932C81.9905 594.828 82.6305 594.776 83.2305 594.776C84.3345 594.776 85.2545 594.92 85.9905 595.208C86.7345 595.496 87.2905 595.984 87.6585 596.672C88.0345 597.352 88.2225 598.284 88.2225 599.468V608H86.6145L86.4705 606.548H86.3505C85.9265 607.084 85.3825 607.496 84.7185 607.784C84.0625 608.072 83.3505 608.216 82.5825 608.216ZM91.9461 608V588.608H93.8661V608H91.9461ZM108.916 608.228C107.684 608.228 106.64 607.996 105.784 607.532C104.928 607.06 104.276 606.332 103.828 605.348C103.38 604.356 103.156 603.072 103.156 601.496C103.156 599.92 103.396 598.64 103.876 597.656C104.364 596.664 105.072 595.936 106 595.472C106.928 595.008 108.064 594.776 109.408 594.776C109.864 594.776 110.32 594.804 110.776 594.86C111.232 594.916 111.668 595 112.084 595.112V596.744C111.66 596.632 111.24 596.548 110.824 596.492C110.416 596.436 110.012 596.408 109.612 596.408C108.612 596.408 107.78 596.572 107.116 596.9C106.452 597.228 105.956 597.76 105.628 598.496C105.308 599.232 105.148 600.216 105.148 601.448C105.148 602.712 105.3 603.72 105.604 604.472C105.908 605.224 106.36 605.768 106.96 606.104C107.568 606.432 108.312 606.596 109.192 606.596C109.616 606.596 110.06 606.556 110.524 606.476C110.988 606.388 111.508 606.252 112.084 606.068V607.688C111.572 607.872 111.048 608.008 110.512 608.096C109.984 608.184 109.452 608.228 108.916 608.228ZM114.674 608V588.608H116.594V608H114.674ZM125.329 608.228C124.209 608.228 123.233 607.996 122.401 607.532C121.569 607.06 120.925 606.332 120.469 605.348C120.013 604.356 119.785 603.072 119.785 601.496C119.785 599.936 120.009 598.66 120.457 597.668C120.913 596.676 121.557 595.948 122.389 595.484C123.221 595.012 124.201 594.776 125.329 594.776C126.457 594.776 127.437 595.012 128.269 595.484C129.101 595.948 129.741 596.676 130.189 597.668C130.645 598.652 130.873 599.928 130.873 601.496C130.873 603.056 130.641 604.332 130.177 605.324C129.721 606.316 129.077 607.048 128.245 607.52C127.421 607.992 126.449 608.228 125.329 608.228ZM125.329 606.668C126.065 606.668 126.701 606.508 127.237 606.188C127.773 605.868 128.185 605.336 128.473 604.592C128.769 603.84 128.917 602.82 128.917 601.532C128.917 600.22 128.769 599.188 128.473 598.436C128.185 597.676 127.769 597.14 127.225 596.828C126.689 596.508 126.057 596.348 125.329 596.348C124.593 596.348 123.957 596.508 123.421 596.828C122.885 597.14 122.469 597.672 122.173 598.424C121.885 599.168 121.741 600.184 121.741 601.472C121.741 602.776 121.885 603.808 122.173 604.568C122.469 605.32 122.885 605.86 123.421 606.188C123.957 606.508 124.593 606.668 125.329 606.668ZM137.152 608.228C136.496 608.228 135.868 608.184 135.268 608.096C134.676 608.008 134.1 607.876 133.54 607.7V606.164C134.18 606.356 134.792 606.496 135.376 606.584C135.96 606.664 136.552 606.704 137.152 606.704C138.28 606.704 139.096 606.512 139.6 606.128C140.112 605.744 140.368 605.204 140.368 604.508C140.368 603.916 140.216 603.464 139.912 603.152C139.608 602.832 139.092 602.596 138.364 602.444L136.6 602.084C135.416 601.828 134.568 601.408 134.056 600.824C133.552 600.232 133.3 599.472 133.3 598.544C133.3 597.448 133.72 596.548 134.56 595.844C135.408 595.132 136.708 594.776 138.46 594.776C139.02 594.776 139.552 594.808 140.056 594.872C140.568 594.936 141.06 595.032 141.532 595.16V596.708C141.004 596.564 140.496 596.46 140.008 596.396C139.528 596.332 139.024 596.3 138.496 596.3C137.672 596.3 137.012 596.4 136.516 596.6C136.028 596.792 135.676 597.056 135.46 597.392C135.244 597.72 135.136 598.088 135.136 598.496C135.136 599.008 135.28 599.432 135.568 599.768C135.856 600.104 136.36 600.352 137.08 600.512L138.844 600.872C140.044 601.12 140.904 601.528 141.424 602.096C141.952 602.664 142.216 603.436 142.216 604.412C142.216 605.588 141.784 606.52 140.92 607.208C140.064 607.888 138.808 608.228 137.152 608.228ZM150.573 608.228C149.221 608.228 148.085 608 147.165 607.544C146.253 607.08 145.565 606.356 145.101 605.372C144.637 604.38 144.405 603.084 144.405 601.484C144.405 599.956 144.617 598.696 145.041 597.704C145.473 596.712 146.081 595.976 146.865 595.496C147.657 595.016 148.593 594.776 149.673 594.776C150.737 594.776 151.641 595.02 152.385 595.508C153.137 595.988 153.709 596.728 154.101 597.728C154.493 598.72 154.689 599.988 154.689 601.532V602.12H145.449V600.812H153.273L152.853 601.1C152.853 599.884 152.725 598.916 152.469 598.196C152.221 597.476 151.857 596.96 151.377 596.648C150.905 596.328 150.329 596.168 149.649 596.168C148.977 596.168 148.393 596.324 147.897 596.636C147.401 596.948 147.017 597.464 146.745 598.184C146.481 598.904 146.349 599.876 146.349 601.1V601.772C146.349 602.972 146.509 603.932 146.829 604.652C147.157 605.364 147.649 605.88 148.305 606.2C148.961 606.512 149.793 606.668 150.801 606.668C151.297 606.668 151.809 606.624 152.337 606.536C152.873 606.44 153.441 606.308 154.041 606.14V607.712C153.417 607.888 152.821 608.016 152.253 608.096C151.693 608.184 151.133 608.228 150.573 608.228ZM162.121 608.228C161.177 608.228 160.317 608.016 159.541 607.592C158.765 607.16 158.145 606.472 157.681 605.528C157.225 604.584 156.997 603.328 156.997 601.76C156.997 600.192 157.245 598.892 157.741 597.86C158.245 596.828 158.985 596.056 159.961 595.544C160.937 595.032 162.137 594.776 163.561 594.776C163.929 594.776 164.297 594.792 164.665 594.824C165.033 594.856 165.373 594.896 165.685 594.944V588.608H167.605V608H165.973L165.841 606.596H165.709C165.325 607.068 164.825 607.46 164.209 607.772C163.601 608.076 162.905 608.228 162.121 608.228ZM162.553 606.572C163.137 606.572 163.709 606.444 164.269 606.188C164.829 605.932 165.301 605.524 165.685 604.964V596.576C165.397 596.504 165.061 596.448 164.677 596.408C164.293 596.368 163.913 596.348 163.537 596.348C162.025 596.348 160.881 596.756 160.105 597.572C159.337 598.388 158.953 599.728 158.953 601.592C158.953 602.872 159.105 603.876 159.409 604.604C159.721 605.324 160.145 605.832 160.681 606.128C161.225 606.424 161.849 606.572 162.553 606.572Z" fill="#E7E9F7"/>
<rect x="187" width="45" height="45" rx="22.5" fill="white" fill-opacity="0.1"/>
<path d="M209.048 28.5V17.78L209.664 18.268L206.2 20.716V19.084L209.664 16.62H210.752V28.5H209.048Z" fill="white"/>
<line x1="209.75" y1="45" x2="209.75" y2="143.75" stroke="#00E5FF" stroke-width="0.5"/>
<rect x="187" y="143.75" width="45" height="45" rx="22.5" fill="white" fill-opacity="0.1"/>
<path d="M205.448 172.25V171.33L208.8 166.946C209.173 166.466 209.469 166.037 209.688 165.658C209.912 165.274 210.072 164.922 210.168 164.602C210.269 164.277 210.32 163.959 210.32 163.65C210.32 162.951 210.123 162.447 209.728 162.138C209.333 161.823 208.723 161.666 207.896 161.666C207.432 161.666 206.979 161.706 206.536 161.786C206.099 161.866 205.691 161.981 205.312 162.13V160.706C205.541 160.621 205.808 160.543 206.112 160.474C206.416 160.405 206.733 160.351 207.064 160.314C207.4 160.277 207.731 160.258 208.056 160.258C209.331 160.258 210.307 160.517 210.984 161.034C211.667 161.551 212.008 162.373 212.008 163.498C212.008 163.914 211.952 164.325 211.84 164.73C211.728 165.13 211.541 165.557 211.28 166.01C211.024 166.463 210.677 166.973 210.24 167.538L207.344 171.274L207.248 170.818H212.624V172.25H205.448Z" fill="white"/>
<line x1="209.75" y1="188.75" x2="209.75" y2="287.5" stroke="#00E5FF" stroke-width="0.5"/>
<rect x="187" y="287.5" width="45" height="45" rx="22.5" fill="white" fill-opacity="0.1"/>
<path d="M208.32 316.152C207.808 316.152 207.304 316.115 206.808 316.04C206.312 315.965 205.84 315.856 205.392 315.712V314.384C205.851 314.528 206.328 314.64 206.824 314.72C207.325 314.795 207.805 314.832 208.264 314.832C209.229 314.832 209.947 314.651 210.416 314.288C210.885 313.92 211.12 313.387 211.12 312.688C211.12 312.027 210.899 311.515 210.456 311.152C210.013 310.784 209.301 310.6 208.32 310.6H206.808V309.264H207.752C208.755 309.264 209.496 309.085 209.976 308.728C210.461 308.365 210.704 307.853 210.704 307.192C210.704 306.584 210.501 306.123 210.096 305.808C209.696 305.488 209.088 305.328 208.272 305.328C207.829 305.328 207.384 305.365 206.936 305.44C206.493 305.515 206.064 305.627 205.648 305.776V304.448C205.899 304.357 206.179 304.28 206.488 304.216C206.797 304.147 207.117 304.096 207.448 304.064C207.779 304.027 208.104 304.008 208.424 304.008C209.709 304.008 210.683 304.275 211.344 304.808C212.011 305.341 212.344 306.093 212.344 307.064C212.344 307.811 212.12 308.437 211.672 308.944C211.229 309.451 210.619 309.787 209.84 309.952L209.848 309.792C210.781 309.915 211.496 310.232 211.992 310.744C212.488 311.251 212.736 311.928 212.736 312.776C212.736 313.48 212.571 314.085 212.24 314.592C211.915 315.093 211.424 315.48 210.768 315.752C210.112 316.019 209.296 316.152 208.32 316.152Z" fill="white"/>
<line x1="209.75" y1="332.5" x2="209.75" y2="431.25" stroke="#00E5FF" stroke-width="0.5"/>
<rect x="187" y="431.25" width="45" height="45" rx="22.5" fill="white" fill-opacity="0.1"/>
<path d="M204.86 457.038V456.102L209.308 447.91H210.972L206.54 456.11L206.324 455.686H213.868V457.038H204.86ZM210.692 459.75V455.686L210.884 451.91H212.236V459.75H210.692Z" fill="white"/>
<line x1="209.75" y1="476.25" x2="209.75" y2="575" stroke="#00E5FF" stroke-width="0.5"/>
<rect x="187" y="575" width="45" height="45" rx="22.5" fill="white" fill-opacity="0.1"/>
<path d="M208.536 603.652C208.019 603.652 207.509 603.612 207.008 603.532C206.512 603.452 206.045 603.34 205.608 603.196V601.868C206.056 602.007 206.531 602.116 207.032 602.196C207.533 602.276 208.019 602.316 208.488 602.316C209.448 602.316 210.16 602.132 210.624 601.764C211.088 601.396 211.32 600.852 211.32 600.132C211.32 599.663 211.203 599.271 210.968 598.956C210.739 598.641 210.347 598.396 209.792 598.22C209.243 598.044 208.485 597.929 207.52 597.876L206.024 597.788L206.424 591.66H212.456V593.004H207.24L207.992 592.292L207.664 597.156L206.624 596.484L208.12 596.572C209.256 596.636 210.179 596.807 210.888 597.084C211.603 597.361 212.123 597.751 212.448 598.252C212.779 598.748 212.944 599.364 212.944 600.1C212.944 601.252 212.571 602.132 211.824 602.74C211.077 603.348 209.981 603.652 208.536 603.652Z" fill="white"/>
</svg>
